<svg xmlns="http://www.w3.org/2000/svg" viewBox="0 0 900 350">
  <defs>
    <radialGradient id="sq_fur_hustle94" cx="40%" cy="40%">
      <stop offset="0%" style="stop-color:#d9a066"/>
      <stop offset="100%" style="stop-color:#9d6b3a"/>
    </radialGradient>
    <radialGradient id="lem_fur_hustle94" cx="40%" cy="40%">
      <stop offset="0%" style="stop-color:#e8e8e8"/>
      <stop offset="100%" style="stop-color:#b8b8b8"/>
    </radialGradient>
    <filter id="shadow_hustle94">
      <feGaussianBlur in="SourceAlpha" stdDeviation="1.5"/>
      <feOffset dx="0.5" dy="1.5" result="offsetblur"/>
      <feFlood flood-color="#000000" flood-opacity="0.3"/>
      <feComposite in2="offsetblur" operator="in"/>
      <feMerge>
        <feMergeNode/>
        <feMergeNode in="SourceGraphic"/>
      </feMerge>
    </filter>
  </defs>
  
  <!-- Panel 1 -->
  <rect x="5" y="10" width="217" height="330" fill="#fff" stroke="#333" stroke-width="3"/>
  
  <!-- Cache on laptop with multiple screens -->
  <g filter="url(#shadow_hustle94)">
    <ellipse cx="111" cy="240" rx="18" ry="20" fill="url(#sq_fur_hustle94)" stroke="#5d4a2f" stroke-width="1.3"/>
    <ellipse cx="111" cy="218" rx="14" ry="13" fill="url(#sq_fur_hustle94)" stroke="#5d4a2f" stroke-width="1.3"/>
    
    <!-- Tall triangle ears -->
    <ellipse cx="104" cy="212" rx="6" ry="11" fill="url(#sq_fur_hustle94)" stroke="#5d4a2f" stroke-width="1.2" transform="rotate(-15 104 212)"/>
    <ellipse cx="118" cy="212" rx="6" ry="11" fill="url(#sq_fur_hustle94)" stroke="#5d4a2f" stroke-width="1.2" transform="rotate(15 118 212)"/>
    <ellipse cx="104" cy="215" rx="3" ry="6.5" fill="#cd853f" transform="rotate(-15 104 215)"/>
    <ellipse cx="118" cy="215" rx="3" ry="6.5" fill="#cd853f" transform="rotate(15 118 215)"/>
    
    <!-- Eyes with dark circles -->
    <ellipse cx="105" cy="220" rx="3" ry="4" fill="#fff" stroke="#2a2a2a" stroke-width="0.8"/>
    <circle cx="105" cy="220" r="2" fill="#1a1a1a"/>
    <ellipse cx="117" cy="220" rx="3" ry="4" fill="#fff" stroke="#2a2a2a" stroke-width="0.8"/>
    <circle cx="117" cy="220" r="2" fill="#1a1a1a"/>
    <path d="M 102 224 Q 105 226 108 224" fill="none" stroke="#6a5a4a" stroke-width="1"/>
    <path d="M 114 224 Q 117 226 120 224" fill="none" stroke="#6a5a4a" stroke-width="1"/>
    
    <ellipse cx="111" cy="225" rx="1.5" ry="1.2" fill="#1a1a1a"/>
    
    <!-- Multiple devices -->
    <rect x="76" y="260" width="70" height="40" fill="#2a2a2a" stroke="#1a1a1a" stroke-width="1"/>
    <rect x="79" y="263" width="64" height="30" fill="#4a7c4a"/>
    
    <rect x="56" y="255" width="20" height="30" rx="2" fill="#1a1a1a"/>
    <rect x="58" y="257" width="16" height="24" fill="#5a8ac5"/>
    
    <rect x="146" y="255" width="20" height="30" rx="2" fill="#1a1a1a"/>
    <rect x="148" y="257" width="16" height="24" fill="#e67c73"/>
    
    <!-- Arms typing -->
    <ellipse cx="91" cy="245" rx="8" ry="6" fill="url(#sq_fur_hustle94)" stroke="#5d4a2f" stroke-width="1" transform="rotate(-45 91 245)"/>
    <ellipse cx="131" cy="245" rx="8" ry="6" fill="url(#sq_fur_hustle94)" stroke="#5d4a2f" stroke-width="1" transform="rotate(45 131 245)"/>
    
    <!-- Fluffy tail -->
    <path d="M 91 245 Q 76 250 71 265 Q 66 280 76 290 Q 86 300 96 290 Q 91 275 91 260 Q 91 252 91 245" fill="url(#sq_fur_hustle94)" stroke="#5d4a2f" stroke-width="1.3"/>
  </g>
  
  <!-- Speech bubble -->
  <rect x="25" y="50" width="175" height="106" rx="12" fill="#fff" stroke="#333" stroke-width="2"/>
  <polygon points="101,154 111,174 121,154" fill="#fff"/>
  <path d="M 101 156 L 111 176 L 121 156" fill="none" stroke="#333" stroke-width="2"/>
  
  <text x="112" y="75" font-family="DejaVu Sans" font-size="14" text-anchor="middle" fill="#222">Sleep when you're</text>
  <text x="112" y="93" font-family="DejaVu Sans" font-size="14" text-anchor="middle" fill="#222">dead. I'm running</text>
  <text x="112" y="111" font-family="DejaVu Sans" font-size="14" text-anchor="middle" fill="#222">three side hustles</text>
  <text x="112" y="129" font-family="DejaVu Sans" font-size="14" text-anchor="middle" fill="#222">while day-trading</text>
  <text x="112" y="147" font-family="DejaVu Sans" font-size="14" text-anchor="middle" fill="#222">acorn futures.</text>
  
  <!-- Panel 2 -->
  <rect x="227" y="10" width="217" height="330" fill="#fff" stroke="#333" stroke-width="3"/>
  
  <!-- Sifaka watching Cache -->
  <g filter="url(#shadow_hustle94)">
    <ellipse cx="335" cy="240" rx="22" ry="28" fill="url(#lem_fur_hustle94)" stroke="#5a5a5a" stroke-width="1.3"/>
    <ellipse cx="335" cy="210" rx="18" ry="16" fill="url(#lem_fur_hustle94)" stroke="#5a5a5a" stroke-width="1.3"/>
    
    <!-- Moderately-sized ears -->
    <ellipse cx="310" cy="205" rx="14" ry="16" fill="url(#lem_fur_hustle94)" stroke="#5a5a5a" stroke-width="1.2"/>
    <ellipse cx="360" cy="205" rx="14" ry="16" fill="url(#lem_fur_hustle94)" stroke="#5a5a5a" stroke-width="1.2"/>
    <ellipse cx="310" cy="205" rx="8" ry="10" fill="#f5b5c5"/>
    <ellipse cx="360" cy="205" rx="8" ry="10" fill="#f5b5c5"/>
    
    <!-- ENORMOUS eyes -->
    <ellipse cx="323" cy="210" rx="10" ry="11" fill="#fff" stroke="#2a2a2a" stroke-width="1"/>
    <circle cx="323" cy="210" r="8" fill="#1a1a1a"/>
    <circle cx="321" cy="208" r="2" fill="#fff"/>
    
    <ellipse cx="347" cy="210" rx="10" ry="11" fill="#fff" stroke="#2a2a2a" stroke-width="1"/>
    <circle cx="347" cy="210" r="8" fill="#1a1a1a"/>
    <circle cx="345" cy="208" r="2" fill="#fff"/>
    
    <ellipse cx="335" cy="218" rx="2" ry="1.5" fill="#1a1a1a"/>
    <path d="M 328 222 Q 335 223 342 222" fill="none" stroke="#8a8a8a" stroke-width="1" stroke-linecap="round"/>
    
    <!-- Ring tail with stripes -->
    <path d="M 315 245 Q 305 255 300 275 Q 295 295 300 310 Q 305 325 315 330 Q 325 332 335 325 Q 330 305 330 285 Q 330 265 325 250" fill="url(#lem_fur_hustle94)" stroke="#5a5a5a" stroke-width="1.3"/>
    <rect x="300" y="275" width="30" height="8" fill="#1a1a1a"/>
    <rect x="300" y="291" width="30" height="8" fill="#1a1a1a"/>
    <rect x="300" y="307" width="30" height="8" fill="#1a1a1a"/>
  </g>
  
  <!-- Speech bubble -->
  <rect x="250" y="50" width="170" height="88" rx="12" fill="#fff" stroke="#333" stroke-width="2"/>
  <polygon points="325,136 335,156 345,136" fill="#fff"/>
  <path d="M 325 138 L 335 158 L 345 138" fill="none" stroke="#333" stroke-width="2"/>
  
  <text x="335" y="75" font-family="DejaVu Sans" font-size="14" text-anchor="middle" fill="#222">Do you think the</text>
  <text x="335" y="93" font-family="DejaVu Sans" font-size="14" text-anchor="middle" fill="#222">hamster on the wheel</text>
  <text x="335" y="111" font-family="DejaVu Sans" font-size="14" text-anchor="middle" fill="#222">knows it's not going</text>
  <text x="335" y="129" font-family="DejaVu Sans" font-size="14" text-anchor="middle" fill="#222">anywhere?</text>
  
  <!-- Panel 3 -->
  <rect x="449" y="10" width="217" height="330" fill="#fff" stroke="#333" stroke-width="3"/>
  
  <!-- Cache collapsed at desk, still typing -->
  <g filter="url(#shadow_hustle94)">
    <!-- Desk -->
    <rect x="484" y="260" width="140" height="4" fill="#8b6f47" stroke="#6b4f37" stroke-width="1"/>
    
    <!-- Cache slumped over -->
    <ellipse cx="557" cy="240" rx="20" ry="18" fill="url(#sq_fur_hustle94)" stroke="#5d4a2f" stroke-width="1.3" transform="rotate(-30 557 240)"/>
    <ellipse cx="540" cy="235" rx="13" ry="12" fill="url(#sq_fur_hustle94)" stroke="#5d4a2f" stroke-width="1.3"/>
    
    <!-- Ears drooping -->
    <ellipse cx="534" cy="228" rx="6" ry="11" fill="url(#sq_fur_hustle94)" stroke="#5d4a2f" stroke-width="1.2" transform="rotate(-45 534 228)"/>
    <ellipse cx="546" cy="228" rx="6" ry="11" fill="url(#sq_fur_hustle94)" stroke="#5d4a2f" stroke-width="1.2" transform="rotate(-25 546 228)"/>
    
    <!-- One eye barely open -->
    <ellipse cx="536" cy="237" rx="2" ry="1" fill="#fff" stroke="#2a2a2a" stroke-width="0.8"/>
    <circle cx="536" cy="237" r="0.5" fill="#1a1a1a"/>
    <path d="M 544 236 Q 547 236 550 236" fill="none" stroke="#2a2a2a" stroke-width="0.8"/>
    
    <!-- Arm still typing -->
    <ellipse cx="580" cy="250" rx="8" ry="6" fill="url(#sq_fur_hustle94)" stroke="#5d4a2f" stroke-width="1"/>
    
    <!-- Laptop -->
    <rect x="520" y="240" width="60" height="35" fill="#2a2a2a" stroke="#1a1a1a" stroke-width="1"/>
    <rect x="523" y="243" width="54" height="26" fill="#4a7c4a"/>
    
    <!-- Coffee cups everywhere -->
    <ellipse cx="490" cy="258" rx="4" ry="2" fill="#6a4a2f"/>
    <rect x="486" y="252" width="8" height="6" fill="#6a4a2f" stroke="#4a3a2f" stroke-width="0.8"/>
    
    <ellipse cx="510" cy="258" rx="4" ry="2" fill="#6a4a2f"/>
    <rect x="506" y="252" width="8" height="6" fill="#6a4a2f" stroke="#4a3a2f" stroke-width="0.8"/>
    
    <ellipse cx="600" cy="258" rx="4" ry="2" fill="#6a4a2f"/>
    <rect x="596" y="252" width="8" height="6" fill="#6a4a2f" stroke="#4a3a2f" stroke-width="0.8"/>
    
    <!-- Tail drooping -->
    <path d="M 520 245 Q 510 255 505 270 Q 500 285 505 295" fill="url(#sq_fur_hustle94)" stroke="#5d4a2f" stroke-width="1.3"/>
  </g>
  
  <!-- Speech bubble -->
  <rect x="475" y="50" width="165" height="88" rx="12" fill="#fff" stroke="#333" stroke-width="2"/>
  <polygon points="540,136 550,156 560,136" fill="#fff"/>
  <path d="M 540 138 L 550 158 L 560 138" fill="none" stroke="#333" stroke-width="2"/>
  
  <text x="557" y="75" font-family="DejaVu Sans" font-size="14" text-anchor="middle" fill="#222">The grind never</text>
  <text x="557" y="93" font-family="DejaVu Sans" font-size="14" text-anchor="middle" fill="#222">stops because</text>
  <text x="557" y="111" font-family="DejaVu Sans" font-size="14" text-anchor="middle" fill="#222">stopping would mean</text>
  <text x="557" y="129" font-family="DejaVu Sans" font-size="14" text-anchor="middle" fill="#222">admitting it's pointless.</text>
</svg>