<svg xmlns="http://www.w3.org/2000/svg" viewBox="0 0 900 350">
  <defs>
    <radialGradient id="sq_fur_gram94" cx="40%" cy="40%">
      <stop offset="0%" style="stop-color:#d9a066"/>
      <stop offset="100%" style="stop-color:#9d6b3a"/>
    </radialGradient>
    <radialGradient id="lem_fur_gram94" cx="40%" cy="40%">
      <stop offset="0%" style="stop-color:#e8e8e8"/>
      <stop offset="100%" style="stop-color:#b8b8b8"/>
    </radialGradient>
    <filter id="shadow_gram94">
      <feGaussianBlur in="SourceAlpha" stdDeviation="1.5"/>
      <feOffset dx="0.5" dy="1.5" result="offsetblur"/>
      <feFlood flood-color="#000000" flood-opacity="0.3"/>
      <feComposite in2="offsetblur" operator="in"/>
      <feMerge>
        <feMergeNode/>
        <feMergeNode in="SourceGraphic"/>
      </feMerge>
    </filter>
  </defs>
  
  <!-- Panel 1 -->
  <rect x="5" y="10" width="290" height="330" fill="#fff" stroke="#333" stroke-width="3"/>
  
  <!-- Sifaka with massive pile of printed Instagram posts -->
  <g filter="url(#shadow_gram94)">
    <ellipse cx="150" cy="240" rx="22" ry="28" fill="url(#lem_fur_gram94)" stroke="#5a5a5a" stroke-width="1.3"/>
    <ellipse cx="150" cy="210" rx="18" ry="16" fill="url(#lem_fur_gram94)" stroke="#5a5a5a" stroke-width="1.3"/>
    
    <!-- Moderately-sized ears -->
    <ellipse cx="125" cy="205" rx="14" ry="16" fill="url(#lem_fur_gram94)" stroke="#5a5a5a" stroke-width="1.2"/>
    <ellipse cx="175" cy="205" rx="14" ry="16" fill="url(#lem_fur_gram94)" stroke="#5a5a5a" stroke-width="1.2"/>
    <ellipse cx="125" cy="205" rx="8" ry="10" fill="#f5b5c5"/>
    <ellipse cx="175" cy="205" rx="8" ry="10" fill="#f5b5c5"/>
    
    <!-- ENORMOUS eyes -->
    <ellipse cx="138" cy="210" rx="10" ry="11" fill="#fff" stroke="#2a2a2a" stroke-width="1"/>
    <circle cx="138" cy="210" r="8" fill="#1a1a1a"/>
    <circle cx="136" cy="208" r="2" fill="#fff"/>
    
    <ellipse cx="162" cy="210" rx="10" ry="11" fill="#fff" stroke="#2a2a2a" stroke-width="1"/>
    <circle cx="162" cy="210" r="8" fill="#1a1a1a"/>
    <circle cx="160" cy="208" r="2" fill="#fff"/>
    
    <ellipse cx="150" cy="218" rx="2" ry="1.5" fill="#1a1a1a"/>
    <path d="M 143 222 Q 150 223 157 222" fill="none" stroke="#8a8a8a" stroke-width="1" stroke-linecap="round"/>
    
    <!-- Ring tail with stripes -->
    <path d="M 130 245 Q 120 255 115 275 Q 110 295 115 310 Q 120 325 130 330 Q 140 332 150 325 Q 145 305 145 285 Q 145 265 140 250" fill="url(#lem_fur_gram94)" stroke="#5a5a5a" stroke-width="1.3"/>
    <rect x="115" y="275" width="30" height="8" fill="#1a1a1a"/>
    <rect x="115" y="291" width="30" height="8" fill="#1a1a1a"/>
    <rect x="115" y="307" width="30" height="8" fill="#1a1a1a"/>
    
    <!-- Massive stack of papers -->
    <rect x="50" y="270" width="200" height="40" fill="#f5f5f5" stroke="#2a2a2a" stroke-width="1"/>
    <rect x="55" y="265" width="190" height="5" fill="#e5e5e5" stroke="#2a2a2a" stroke-width="0.5"/>
    <rect x="60" y="260" width="180" height="5" fill="#d5d5d5" stroke="#2a2a2a" stroke-width="0.5"/>
    <rect x="65" y="255" width="170" height="5" fill="#c5c5c5" stroke="#2a2a2a" stroke-width="0.5"/>
    
    <!-- Single paper in hand -->
    <rect x="165" y="235" width="40" height="50" fill="#f5f5f5" stroke="#2a2a2a" stroke-width="1" transform="rotate(10 185 260)"/>
    <line x1="170" y1="245" x2="200" y2="245" stroke="#4a4a4a" stroke-width="0.5"/>
    <line x1="170" y1="250" x2="200" y2="250" stroke="#4a4a4a" stroke-width="0.5"/>
    <line x1="170" y1="255" x2="200" y2="255" stroke="#4a4a4a" stroke-width="0.5"/>
  </g>
  
  <!-- Speech bubble -->
  <rect x="40" y="50" width="220" height="88" rx="12" fill="#fff" stroke="#333" stroke-width="2"/>
  <polygon points="140,136 150,156 160,136" fill="#fff"/>
  <path d="M 140 138 L 150 158 L 160 138" fill="none" stroke="#333" stroke-width="2"/>
  
  <text x="150" y="75" font-family="DejaVu Sans" font-size="14" text-anchor="middle" fill="#222">After analyzing a decade</text>
  <text x="150" y="93" font-family="DejaVu Sans" font-size="14" text-anchor="middle" fill="#222">of Instagram posts,</text>
  <text x="150" y="111" font-family="DejaVu Sans" font-size="14" text-anchor="middle" fill="#222">I discovered the moment</text>
  <text x="150" y="129" font-family="DejaVu Sans" font-size="14" text-anchor="middle" fill="#222">everything changed!</text>
  
  <!-- Panel 2 -->
  <rect x="305" y="10" width="290" height="330" fill="#fff" stroke="#333" stroke-width="3"/>
  
  <!-- Cache looking over -->
  <g filter="url(#shadow_gram94)">
    <ellipse cx="450" cy="240" rx="18" ry="20" fill="url(#sq_fur_gram94)" stroke="#5d4a2f" stroke-width="1.3"/>
    <ellipse cx="450" cy="218" rx="14" ry="13" fill="url(#sq_fur_gram94)" stroke="#5d4a2f" stroke-width="1.3"/>
    
    <!-- Tall triangle ears -->
    <ellipse cx="443" cy="212" rx="6" ry="11" fill="url(#sq_fur_gram94)" stroke="#5d4a2f" stroke-width="1.2" transform="rotate(-15 443 212)"/>
    <ellipse cx="457" cy="212" rx="6" ry="11" fill="url(#sq_fur_gram94)" stroke="#5d4a2f" stroke-width="1.2" transform="rotate(15 457 212)"/>
    <ellipse cx="443" cy="215" rx="3" ry="6.5" fill="#cd853f" transform="rotate(-15 443 215)"/>
    <ellipse cx="457" cy="215" rx="3" ry="6.5" fill="#cd853f" transform="rotate(15 457 215)"/>
    
    <!-- Curious eyes -->
    <ellipse cx="444" cy="220" rx="3" ry="4" fill="#fff" stroke="#2a2a2a" stroke-width="0.8"/>
    <circle cx="444" cy="220" r="2" fill="#1a1a1a"/>
    <ellipse cx="456" cy="220" rx="3" ry="4" fill="#fff" stroke="#2a2a2a" stroke-width="0.8"/>
    <circle cx="456" cy="220" r="2" fill="#1a1a1a"/>
    
    <ellipse cx="450" cy="225" rx="1.5" ry="1.2" fill="#1a1a1a"/>
    
    <!-- Fluffy tail -->
    <path d="M 430 245 Q 415 250 410 265 Q 405 280 415 290 Q 425 300 435 290 Q 430 275 430 260 Q 430 252 430 245" fill="url(#sq_fur_gram94)" stroke="#5d4a2f" stroke-width="1.3"/>
  </g>
  
  <!-- Speech bubble -->
  <rect x="340" y="50" width="220" height="52" rx="12" fill="#fff" stroke="#333" stroke-width="2"/>
  <polygon points="440,100 450,120 460,100" fill="#fff"/>
  <path d="M 440 102 L 450 122 L 460 102" fill="none" stroke="#333" stroke-width="2"/>
  
  <text x="450" y="75" font-family="DejaVu Sans" font-size="14" text-anchor="middle" fill="#222">When did everything</text>
  <text x="450" y="93" font-family="DejaVu Sans" font-size="14" text-anchor="middle" fill="#222">change?</text>
  
  <!-- Panel 3 -->
  <rect x="605" y="10" width="290" height="330" fill="#fff" stroke="#333" stroke-width="3"/>
  
  <!-- Sifaka holding up paper -->
  <g filter="url(#shadow_gram94)">
    <ellipse cx="750" cy="200" rx="22" ry="28" fill="url(#lem_fur_gram94)" stroke="#5a5a5a" stroke-width="1.3"/>
    <ellipse cx="750" cy="170" rx="18" ry="16" fill="url(#lem_fur_gram94)" stroke="#5a5a5a" stroke-width="1.3"/>
    
    <!-- Moderately-sized ears -->
    <ellipse cx="725" cy="165" rx="14" ry="16" fill="url(#lem_fur_gram94)" stroke="#5a5a5a" stroke-width="1.2"/>
    <ellipse cx="775" cy="165" rx="14" ry="16" fill="url(#lem_fur_gram94)" stroke="#5a5a5a" stroke-width="1.2"/>
    <ellipse cx="725" cy="165" rx="8" ry="10" fill="#f5b5c5"/>
    <ellipse cx="775" cy="165" rx="8" ry="10" fill="#f5b5c5"/>
    
    <!-- ENORMOUS eyes -->
    <ellipse cx="738" cy="170" rx="10" ry="11" fill="#fff" stroke="#2a2a2a" stroke-width="1"/>
    <circle cx="738" cy="170" r="8" fill="#1a1a1a"/>
    <circle cx="736" cy="168" r="2" fill="#fff"/>
    
    <ellipse cx="762" cy="170" rx="10" ry="11" fill="#fff" stroke="#2a2a2a" stroke-width="1"/>
    <circle cx="762" cy="170" r="8" fill="#1a1a1a"/>
    <circle cx="760" cy="168" r="2" fill="#fff"/>
    
    <ellipse cx="750" cy="178" rx="2" ry="1.5" fill="#1a1a1a"/>
    <path d="M 743 182 Q 750 183 757 182" fill="none" stroke="#8a8a8a" stroke-width="1" stroke-linecap="round"/>
    
    <!-- Paper with date -->
    <rect x="710" y="195" width="80" height="30" fill="#f5f5f5" stroke="#2a2a2a" stroke-width="1"/>
    <text x="750" y="215" font-family="DejaVu Sans" font-size="16" font-weight="bold" text-anchor="middle" fill="#E63946">2013</text>
    
    <!-- Ring tail with stripes (visible) -->
    <path d="M 770 205 Q 780 215 785 235 Q 790 255 785 270 Q 780 285 770 290 Q 760 292 750 285 Q 755 265 755 245 Q 755 225 760 210" fill="url(#lem_fur_gram94)" stroke="#5a5a5a" stroke-width="1.3"/>
    <rect x="755" y="235" width="30" height="8" fill="#1a1a1a"/>
    <rect x="755" y="251" width="30" height="8" fill="#1a1a1a"/>
    <rect x="755" y="267" width="30" height="8" fill="#1a1a1a"/>
  </g>
  
  <!-- Speech bubble -->
  <rect x="640" y="50" width="220" height="70" rx="12" fill="#fff" stroke="#333" stroke-width="2"/>
  <polygon points="740,118 750,138 760,118" fill="#fff"/>
  <path d="M 740 120 L 750 140 L 760 120" fill="none" stroke="#333" stroke-width="2"/>
  
  <text x="750" y="75" font-family="DejaVu Sans" font-size="14" text-anchor="middle" fill="#222">The day they let us</text>
  <text x="750" y="93" font-family="DejaVu Sans" font-size="14" text-anchor="middle" fill="#222">upload things that</text>
  <text x="750" y="111" font-family="DejaVu Sans" font-size="14" text-anchor="middle" fill="#222">weren't square.</text>
</svg>