<svg xmlns="http://www.w3.org/2000/svg" viewBox="0 0 900 350">
  <defs>
    <radialGradient id="sq_fur_room84" cx="40%" cy="40%">
      <stop offset="0%" style="stop-color:#d9a066"/>
      <stop offset="100%" style="stop-color:#9d6b3a"/>
    </radialGradient>
    <radialGradient id="lem_fur_room84" cx="40%" cy="40%">
      <stop offset="0%" style="stop-color:#e8e8e8"/>
      <stop offset="100%" style="stop-color:#b8b8b8"/>
    </radialGradient>
    <filter id="shadow_room84">
      <feGaussianBlur in="SourceAlpha" stdDeviation="1.5"/>
      <feOffset dx="0.5" dy="1.5" result="offsetblur"/>
      <feFlood flood-color="#000000" flood-opacity="0.3"/>
      <feComposite in2="offsetblur" operator="in"/>
      <feMerge>
        <feMergeNode/>
        <feMergeNode in="SourceGraphic"/>
      </feMerge>
    </filter>
  </defs>
  
  <!-- Panel 1 -->
  <rect x="5" y="10" width="290" height="330" fill="#fff" stroke="#333" stroke-width="3"/>
  
  <!-- Cache standing at door -->
  <g filter="url(#shadow_room84)">
    <ellipse cx="150" cy="240" rx="18" ry="20" fill="url(#sq_fur_room84)" stroke="#5d4a2f" stroke-width="1.3"/>
    <ellipse cx="150" cy="218" rx="14" ry="13" fill="url(#sq_fur_room84)" stroke="#5d4a2f" stroke-width="1.3"/>
    
    <!-- Tall triangle ears -->
    <ellipse cx="143" cy="212" rx="6" ry="11" fill="url(#sq_fur_room84)" stroke="#5d4a2f" stroke-width="1.2" transform="rotate(-15 143 212)"/>
    <ellipse cx="157" cy="212" rx="6" ry="11" fill="url(#sq_fur_room84)" stroke="#5d4a2f" stroke-width="1.2" transform="rotate(15 157 212)"/>
    <ellipse cx="143" cy="215" rx="3" ry="6.5" fill="#cd853f" transform="rotate(-15 143 215)"/>
    <ellipse cx="157" cy="215" rx="3" ry="6.5" fill="#cd853f" transform="rotate(15 157 215)"/>
    
    <!-- Half-lidded eyes -->
    <ellipse cx="144" cy="220" rx="3" ry="2" fill="#fff" stroke="#2a2a2a" stroke-width="0.8"/>
    <circle cx="144" cy="220" r="1.5" fill="#1a1a1a"/>
    <ellipse cx="156" cy="220" rx="3" ry="2" fill="#fff" stroke="#2a2a2a" stroke-width="0.8"/>
    <circle cx="156" cy="220" r="1.5" fill="#1a1a1a"/>
    
    <ellipse cx="150" cy="225" rx="1.5" ry="1.2" fill="#1a1a1a"/>
    
    <!-- Fluffy tail -->
    <path d="M 130 245 Q 115 250 110 265 Q 105 280 115 290 Q 125 300 135 290 Q 130 275 130 260 Q 130 252 130 245" fill="url(#sq_fur_room84)" stroke="#5d4a2f" stroke-width="1.3"/>
  </g>
  
  <!-- Door frame -->
  <rect x="180" y="180" width="80" height="120" fill="#8b6f47" stroke="#5d4a2f" stroke-width="2"/>
  <rect x="185" y="185" width="70" height="110" fill="#2a2a2a"/>
  
  <!-- Speech bubble -->
  <rect x="40" y="50" width="210" height="70" rx="12" fill="#fff" stroke="#333" stroke-width="2"/>
  <polygon points="140,118 150,138 160,118" fill="#fff"/>
  <path d="M 140 120 L 150 140 L 160 120" fill="none" stroke="#333" stroke-width="2"/>
  
  <text x="145" y="75" font-family="DejaVu Sans" font-size="14" text-anchor="middle" fill="#222">Finally made it to the room</text>
  <text x="145" y="93" font-family="DejaVu Sans" font-size="14" text-anchor="middle" fill="#222">where it happens. Time to</text>
  <text x="145" y="111" font-family="DejaVu Sans" font-size="14" text-anchor="middle" fill="#222">change everything.</text>
  
  <!-- Panel 2 -->
  <rect x="300" y="10" width="290" height="330" fill="#fff" stroke="#333" stroke-width="3"/>
  
  <!-- Sifaka already in room -->
  <g filter="url(#shadow_room84)">
    <ellipse cx="445" cy="240" rx="22" ry="28" fill="url(#lem_fur_room84)" stroke="#5a5a5a" stroke-width="1.3"/>
    <ellipse cx="445" cy="210" rx="18" ry="16" fill="url(#lem_fur_room84)" stroke="#5a5a5a" stroke-width="1.3"/>
    
    <!-- Moderately-sized ears -->
    <ellipse cx="420" cy="205" rx="14" ry="16" fill="url(#lem_fur_room84)" stroke="#5a5a5a" stroke-width="1.2"/>
    <ellipse cx="470" cy="205" rx="14" ry="16" fill="url(#lem_fur_room84)" stroke="#5a5a5a" stroke-width="1.2"/>
    <ellipse cx="420" cy="205" rx="8" ry="10" fill="#f5b5c5"/>
    <ellipse cx="470" cy="205" rx="8" ry="10" fill="#f5b5c5"/>
    
    <!-- ENORMOUS eyes -->
    <ellipse cx="433" cy="210" rx="10" ry="11" fill="#fff" stroke="#2a2a2a" stroke-width="1"/>
    <circle cx="433" cy="210" r="8" fill="#1a1a1a"/>
    <circle cx="431" cy="208" r="2" fill="#fff"/>
    
    <ellipse cx="457" cy="210" rx="10" ry="11" fill="#fff" stroke="#2a2a2a" stroke-width="1"/>
    <circle cx="457" cy="210" r="8" fill="#1a1a1a"/>
    <circle cx="455" cy="208" r="2" fill="#fff"/>
    
    <ellipse cx="445" cy="218" rx="2" ry="1.5" fill="#1a1a1a"/>
    <path d="M 438 222 Q 445 223 452 222" fill="none" stroke="#8a8a8a" stroke-width="1" stroke-linecap="round"/>
    
    <!-- Ring tail with stripes -->
    <path d="M 425 245 Q 415 255 410 275 Q 405 295 415 305 Q 425 310 435 305 Q 430 285 430 265 Q 430 255 425 245" fill="url(#lem_fur_room84)" stroke="#5a5a5a" stroke-width="1.3"/>
    <rect x="410" y="275" width="25" height="8" fill="#1a1a1a"/>
    <rect x="410" y="291" width="25" height="8" fill="#1a1a1a"/>
  </g>
  
  <!-- Conference table with papers -->
  <rect x="340" y="270" width="200" height="40" fill="#8b6f47" stroke="#5d4a2f" stroke-width="2"/>
  <rect x="380" y="265" width="40" height="25" fill="#f5f5f5" stroke="#2a2a2a" stroke-width="1"/>
  <rect x="430" y="265" width="40" height="25" fill="#f5f5f5" stroke="#2a2a2a" stroke-width="1"/>
  <rect x="480" y="265" width="40" height="25" fill="#f5f5f5" stroke="#2a2a2a" stroke-width="1"/>
  
  <!-- Speech bubble -->
  <rect x="340" y="50" width="210" height="70" rx="12" fill="#fff" stroke="#333" stroke-width="2"/>
  <polygon points="435,118 445,138 455,118" fill="#fff"/>
  <path d="M 435 120 L 445 140 L 455 120" fill="none" stroke="#333" stroke-width="2"/>
  
  <text x="445" y="75" font-family="DejaVu Sans" font-size="14" text-anchor="middle" fill="#222">Welcome to the room!</text>
  <text x="445" y="93" font-family="DejaVu Sans" font-size="14" text-anchor="middle" fill="#222">We've been changing things</text>
  <text x="445" y="111" font-family="DejaVu Sans" font-size="14" text-anchor="middle" fill="#222">for 200 years.</text>
  
  <!-- Panel 3 -->
  <rect x="595" y="10" width="300" height="330" fill="#fff" stroke="#333" stroke-width="3"/>
  
  <!-- Wide shot of room full of animals -->
  <g filter="url(#shadow_room84)">
    <!-- Multiple creatures at table -->
    <!-- Rabbit -->
    <ellipse cx="650" cy="250" rx="12" ry="15" fill="#d2b48c" stroke="#8b7355" stroke-width="1"/>
    <ellipse cx="650" cy="235" rx="10" ry="10" fill="#d2b48c" stroke="#8b7355" stroke-width="1"/>
    <ellipse cx="645" cy="230" rx="4" ry="8" fill="#d2b48c" stroke="#8b7355" stroke-width="1"/>
    <ellipse cx="655" cy="230" rx="4" ry="8" fill="#d2b48c" stroke="#8b7355" stroke-width="1"/>
    
    <!-- Owl -->
    <ellipse cx="700" cy="245" rx="15" ry="18" fill="#8b7d6b" stroke="#5d524a" stroke-width="1"/>
    <ellipse cx="700" cy="225" rx="13" ry="12" fill="#8b7d6b" stroke="#5d524a" stroke-width="1"/>
    <circle cx="695" cy="225" r="5" fill="#fff" stroke="#2a2a2a" stroke-width="1"/>
    <circle cx="705" cy="225" r="5" fill="#fff" stroke="#2a2a2a" stroke-width="1"/>
    <circle cx="695" cy="225" r="3" fill="#1a1a1a"/>
    <circle cx="705" cy="225" r="3" fill="#1a1a1a"/>
    
    <!-- Raccoon -->
    <ellipse cx="750" cy="250" rx="14" ry="17" fill="#6b6b6b" stroke="#4a4a4a" stroke-width="1"/>
    <ellipse cx="750" cy="232" rx="11" ry="10" fill="#6b6b6b" stroke="#4a4a4a" stroke-width="1"/>
    <path d="M 740 230 Q 745 232 740 234" fill="#2a2a2a"/>
    <path d="M 760 230 Q 755 232 760 234" fill="#2a2a2a"/>
    
    <!-- Possum -->
    <ellipse cx="800" cy="248" rx="13" ry="16" fill="#c0c0c0" stroke="#8a8a8a" stroke-width="1"/>
    <ellipse cx="800" cy="230" rx="10" ry="9" fill="#c0c0c0" stroke="#8a8a8a" stroke-width="1"/>
    <path d="M 790 235 Q 785 240 790 245" fill="#ffc0cb" stroke="#8a8a8a" stroke-width="1"/>
    
    <!-- Fox -->
    <ellipse cx="850" cy="250" rx="14" ry="18" fill="#ff6347" stroke="#cd5c5c" stroke-width="1"/>
    <ellipse cx="850" cy="230" rx="12" ry="11" fill="#ff6347" stroke="#cd5c5c" stroke-width="1"/>
    <path d="M 840 225 L 838 220 L 842 223" fill="#ff6347" stroke="#cd5c5c" stroke-width="1"/>
    <path d="M 860 225 L 862 220 L 858 223" fill="#ff6347" stroke="#cd5c5c" stroke-width="1"/>
  </g>
  
  <!-- Large conference table -->
  <rect x="620" y="270" width="250" height="50" fill="#8b6f47" stroke="#5d4a2f" stroke-width="2"/>
  
  <!-- Many papers scattered -->
  <rect x="640" y="265" width="30" height="20" fill="#f5f5f5" stroke="#2a2a2a" stroke-width="0.8" transform="rotate(-5 655 275)"/>
  <rect x="680" y="265" width="30" height="20" fill="#f5f5f5" stroke="#2a2a2a" stroke-width="0.8" transform="rotate(3 695 275)"/>
  <rect x="720" y="265" width="30" height="20" fill="#f5f5f5" stroke="#2a2a2a" stroke-width="0.8" transform="rotate(-2 735 275)"/>
  <rect x="760" y="265" width="30" height="20" fill="#f5f5f5" stroke="#2a2a2a" stroke-width="0.8" transform="rotate(4 775 275)"/>
  <rect x="800" y="265" width="30" height="20" fill="#f5f5f5" stroke="#2a2a2a" stroke-width="0.8" transform="rotate(-3 815 275)"/>
  <rect x="840" y="265" width="30" height="20" fill="#f5f5f5" stroke="#2a2a2a" stroke-width="0.8" transform="rotate(2 855 275)"/>
  
  <!-- Speech bubble -->
  <rect x="650" y="50" width="200" height="88" rx="12" fill="#fff" stroke="#333" stroke-width="2"/>
  <polygon points="740,136 750,156 760,136" fill="#fff"/>
  <path d="M 740 138 L 750 158 L 760 138" fill="none" stroke="#333" stroke-width="2"/>
  
  <text x="750" y="75" font-family="DejaVu Sans" font-size="14" text-anchor="middle" fill="#222">Nothing ever changes</text>
  <text x="750" y="93" font-family="DejaVu Sans" font-size="14" text-anchor="middle" fill="#222">because we're all trying</text>
  <text x="750" y="111" font-family="DejaVu Sans" font-size="14" text-anchor="middle" fill="#222">to change the same</text>
  <text x="750" y="129" font-family="DejaVu Sans" font-size="14" text-anchor="middle" fill="#222">damn thing.</text>
</svg>