<svg xmlns="http://www.w3.org/2000/svg" viewBox="0 0 400 960">
  <defs>
    <radialGradient id="sq_fur_addict42" cx="40%" cy="40%">
      <stop offset="0%" style="stop-color:#d9a066"/>
      <stop offset="100%" style="stop-color:#9d6b3a"/>
    </radialGradient>
    <radialGradient id="lem_fur_addict42" cx="40%" cy="40%">
      <stop offset="0%" style="stop-color:#e8e8e8"/>
      <stop offset="100%" style="stop-color:#b8b8b8"/>
    </radialGradient>
    <filter id="shadow_addict42">
      <feGaussianBlur in="SourceAlpha" stdDeviation="1.5"/>
      <feOffset dx="0.5" dy="1.5" result="offsetblur"/>
      <feFlood flood-color="#000000" flood-opacity="0.3"/>
      <feComposite in2="offsetblur" operator="in"/>
      <feMerge>
        <feMergeNode/>
        <feMergeNode in="SourceGraphic"/>
      </feMerge>
    </filter>
  </defs>
  
  <!-- Panel 1 -->
  <rect x="10" y="10" width="380" height="300" fill="#fff" stroke="#333" stroke-width="3"/>
  
  <!-- Cache scrolling frantically -->
  <g filter="url(#shadow_addict42)">
    <!-- Phone -->
    <rect x="185" y="170" width="30" height="50" rx="3" fill="#1a1a1a" stroke="#0a0a0a" stroke-width="1.5"/>
    <rect x="187" y="175" width="26" height="40" fill="#e1306c"/>
    
    <!-- Instagram feed (hearts floating up) -->
    <path d="M 195 185 Q 195 183 196.5 183 Q 198 183 198 185 L 198 187 L 196.5 188.5 L 195 187 Z" fill="#fff" opacity="0.8"/>
    <path d="M 202 190 Q 202 188 203.5 188 Q 205 188 205 190 L 205 192 L 203.5 193.5 L 202 192 Z" fill="#fff" opacity="0.6"/>
    <path d="M 193 200 Q 193 198 194.5 198 Q 196 198 196 200 L 196 202 L 194.5 203.5 L 193 202 Z" fill="#fff" opacity="0.4"/>
    
    <!-- Cache body -->
    <ellipse cx="200" cy="140" rx="18" ry="20" fill="url(#sq_fur_addict42)" stroke="#5d4a2f" stroke-width="1.3"/>
    <ellipse cx="200" cy="118" rx="14" ry="13" fill="url(#sq_fur_addict42)" stroke="#5d4a2f" stroke-width="1.3"/>
    
    <!-- Tall triangle ears -->
    <ellipse cx="193" cy="112" rx="6" ry="11" fill="url(#sq_fur_addict42)" stroke="#5d4a2f" stroke-width="1.2" transform="rotate(-15 193 112)"/>
    <ellipse cx="207" cy="112" rx="6" ry="11" fill="url(#sq_fur_addict42)" stroke="#5d4a2f" stroke-width="1.2" transform="rotate(15 207 112)"/>
    <ellipse cx="193" cy="115" rx="3" ry="6.5" fill="#cd853f" transform="rotate(-15 193 115)"/>
    <ellipse cx="207" cy="115" rx="3" ry="6.5" fill="#cd853f" transform="rotate(15 207 115)"/>
    
    <!-- Wide dilated eyes -->
    <ellipse cx="194" cy="120" rx="5" ry="6" fill="#fff" stroke="#2a2a2a" stroke-width="0.8"/>
    <circle cx="194" cy="120" r="4" fill="#1a1a1a"/>
    <circle cx="192" cy="118" r="1" fill="#fff"/>
    <ellipse cx="206" cy="120" rx="5" ry="6" fill="#fff" stroke="#2a2a2a" stroke-width="0.8"/>
    <circle cx="206" cy="120" r="4" fill="#1a1a1a"/>
    <circle cx="204" cy="118" r="1" fill="#fff"/>
    
    <!-- Dark circles under eyes -->
    <ellipse cx="194" cy="126" rx="4" ry="2" fill="#8b6842" opacity="0.5"/>
    <ellipse cx="206" cy="126" rx="4" ry="2" fill="#8b6842" opacity="0.5"/>
    
    <ellipse cx="200" cy="125" rx="1.5" ry="1.2" fill="#1a1a1a"/>
    <path d="M 196 128 Q 200 127 204 128" fill="none" stroke="#8b6842" stroke-width="1" stroke-linecap="round"/>
    
    <!-- Paw swiping up -->
    <ellipse cx="205" cy="165" rx="6" ry="8" fill="url(#sq_fur_addict42)" stroke="#5d4a2f" stroke-width="1" transform="rotate(-30 205 165)"/>
    <!-- Motion lines -->
    <path d="M 205 175 L 205 165" stroke="#999" stroke-width="1" opacity="0.5"/>
    <path d="M 210 173 L 210 163" stroke="#999" stroke-width="1" opacity="0.5"/>
    
    <!-- Fluffy tail -->
    <path d="M 180 145 Q 165 150 160 165 Q 155 180 165 190 Q 175 200 185 190 Q 180 175 180 160 Q 180 152 180 145" fill="url(#sq_fur_addict42)" stroke="#5d4a2f" stroke-width="1.3"/>
  </g>
  
  <!-- Speech bubble -->
  <rect x="65" y="45" width="270" height="62" rx="12" fill="#fff" stroke="#333" stroke-width="2"/>
  <polygon points="190,105 200,125 210,105" fill="#fff"/>
  <path d="M 190 107 L 200 127 L 210 107" fill="none" stroke="#333" stroke-width="2"/>
  
  <text x="200" y="72" font-family="DejaVu Sans" font-size="26" text-anchor="middle" fill="#222">Just one more scroll...</text>
  <text x="200" y="98" font-family="DejaVu Sans" font-size="26" text-anchor="middle" fill="#222">I can stop anytime.</text>
  
  <!-- Panel 2 -->
  <rect x="10" y="330" width="380" height="300" fill="#fff" stroke="#333" stroke-width="3"/>
  
  <!-- Sifaka watching with concern -->
  <g filter="url(#shadow_addict42)">
    <ellipse cx="200" cy="520" rx="22" ry="28" fill="url(#lem_fur_addict42)" stroke="#5a5a5a" stroke-width="1.3"/>
    <ellipse cx="200" cy="490" rx="18" ry="16" fill="url(#lem_fur_addict42)" stroke="#5a5a5a" stroke-width="1.3"/>
    
    <!-- Moderately-sized ears -->
    <ellipse cx="175" cy="485" rx="14" ry="16" fill="url(#lem_fur_addict42)" stroke="#5a5a5a" stroke-width="1.2"/>
    <ellipse cx="225" cy="485" rx="14" ry="16" fill="url(#lem_fur_addict42)" stroke="#5a5a5a" stroke-width="1.2"/>
    <ellipse cx="175" cy="485" rx="8" ry="10" fill="#f5b5c5"/>
    <ellipse cx="225" cy="485" rx="8" ry="10" fill="#f5b5c5"/>
    
    <!-- ENORMOUS concerned eyes -->
    <ellipse cx="188" cy="490" rx="10" ry="11" fill="#fff" stroke="#2a2a2a" stroke-width="1"/>
    <circle cx="188" cy="490" r="8" fill="#1a1a1a"/>
    <circle cx="186" cy="488" r="2" fill="#fff"/>
    
    <ellipse cx="212" cy="490" rx="10" ry="11" fill="#fff" stroke="#2a2a2a" stroke-width="1"/>
    <circle cx="212" cy="490" r="8" fill="#1a1a1a"/>
    <circle cx="210" cy="488" r="2" fill="#fff"/>
    
    <ellipse cx="200" cy="498" rx="2" ry="1.5" fill="#1a1a1a"/>
    <path d="M 193 502 Q 200 501 207 502" fill="none" stroke="#8a8a8a" stroke-width="1" stroke-linecap="round"/>
    
    <!-- Ring tail with stripes -->
    <path d="M 180 525 Q 170 535 165 555 Q 160 575 165 590 Q 170 605 180 610 Q 190 612 200 605 Q 195 585 195 565 Q 195 545 190 530" fill="url(#lem_fur_addict42)" stroke="#5a5a5a" stroke-width="1.3"/>
    <rect x="165" y="555" width="30" height="8" fill="#1a1a1a"/>
    <rect x="165" y="571" width="30" height="8" fill="#1a1a1a"/>
    <rect x="165" y="587" width="30" height="8" fill="#1a1a1a"/>
  </g>
  
  <!-- Speech bubble -->
  <rect x="65" y="370" width="270" height="85" rx="12" fill="#fff" stroke="#333" stroke-width="2"/>
  <polygon points="190,453 200,473 210,453" fill="#fff"/>
  <path d="M 190 455 L 200 475 L 210 455" fill="none" stroke="#333" stroke-width="2"/>
  
  <text x="200" y="400" font-family="DejaVu Sans" font-size="26" text-anchor="middle" fill="#222">You haven't eaten</text>
  <text x="200" y="428" font-family="DejaVu Sans" font-size="26" text-anchor="middle" fill="#222">in twelve hours.</text>
  
  <!-- Panel 3 -->
  <rect x="10" y="650" width="380" height="300" fill="#fff" stroke="#333" stroke-width="3"/>
  
  <!-- Cache still scrolling, looking gaunt -->
  <g filter="url(#shadow_addict42)">
    <!-- Phone glowing -->
    <rect x="185" y="820" width="30" height="50" rx="3" fill="#1a1a1a" stroke="#0a0a0a" stroke-width="1.5"/>
    <rect x="187" y="825" width="26" height="40" fill="#e1306c"/>
    <rect x="183" y="818" width="34" height="54" rx="5" fill="#e1306c" opacity="0.3"/>
    
    <!-- Cache exhausted but still scrolling -->
    <ellipse cx="200" cy="790" rx="18" ry="20" fill="url(#sq_fur_addict42)" stroke="#5d4a2f" stroke-width="1.3"/>
    <ellipse cx="200" cy="768" rx="14" ry="13" fill="url(#sq_fur_addict42)" stroke="#5d4a2f" stroke-width="1.3"/>
    
    <!-- Drooping ears -->
    <ellipse cx="193" cy="762" rx="6" ry="11" fill="url(#sq_fur_addict42)" stroke="#5d4a2f" stroke-width="1.2" transform="rotate(-25 193 762)"/>
    <ellipse cx="207" cy="762" rx="6" ry="11" fill="url(#sq_fur_addict42)" stroke="#5d4a2f" stroke-width="1.2" transform="rotate(25 207 762)"/>
    <ellipse cx="193" cy="765" rx="3" ry="6.5" fill="#cd853f" transform="rotate(-25 193 765)"/>
    <ellipse cx="207" cy="765" rx="3" ry="6.5" fill="#cd853f" transform="rotate(25 207 765)"/>
    
    <!-- Bloodshot eyes -->
    <ellipse cx="194" cy="770" rx="5" ry="6" fill="#fff" stroke="#2a2a2a" stroke-width="0.8"/>
    <circle cx="194" cy="770" r="4" fill="#1a1a1a"/>
    <path d="M 190 767 L 198 773" stroke="#e74c3c" stroke-width="0.5"/>
    <path d="M 190 773 L 198 767" stroke="#e74c3c" stroke-width="0.5"/>
    
    <ellipse cx="206" cy="770" rx="5" ry="6" fill="#fff" stroke="#2a2a2a" stroke-width="0.8"/>
    <circle cx="206" cy="770" r="4" fill="#1a1a1a"/>
    <path d="M 202 767 L 210 773" stroke="#e74c3c" stroke-width="0.5"/>
    <path d="M 202 773 L 210 767" stroke="#e74c3c" stroke-width="0.5"/>
    
    <ellipse cx="200" cy="775" rx="1.5" ry="1.2" fill="#1a1a1a"/>
    
    <!-- Fluffy tail limp -->
    <path d="M 180 795 Q 165 805 160 820 Q 155 835 160 850 Q 165 860 175 865 Q 170 855 170 840 Q 170 825 175 810 Q 178 802 180 795" fill="url(#sq_fur_addict42)" stroke="#5d4a2f" stroke-width="1.3"/>
  </g>
  
  <!-- Speech bubble -->
  <rect x="60" y="690" width="280" height="62" rx="12" fill="#fff" stroke="#333" stroke-width="2"/>
  <polygon points="190,750 200,770 210,750" fill="#fff"/>
  <path d="M 190 752 L 200 772 L 210 752" fill="none" stroke="#333" stroke-width="2"/>
  
  <text x="200" y="717" font-family="DejaVu Sans" font-size="26" text-anchor="middle" fill="#222">Good thing it's not</text>
  <text x="200" y="743" font-family="DejaVu Sans" font-size="26" text-anchor="middle" fill="#222">clinically addictive.</text>
</svg>