<svg xmlns="http://www.w3.org/2000/svg" viewBox="0 0 400 960">
  <defs>
    <radialGradient id="sq_fur_auto83" cx="40%" cy="40%">
      <stop offset="0%" style="stop-color:#d9a066"/>
      <stop offset="100%" style="stop-color:#9d6b3a"/>
    </radialGradient>
    <radialGradient id="lem_fur_auto83" cx="40%" cy="40%">
      <stop offset="0%" style="stop-color:#e8e8e8"/>
      <stop offset="100%" style="stop-color:#b8b8b8"/>
    </radialGradient>
    <filter id="shadow_auto83">
      <feGaussianBlur in="SourceAlpha" stdDeviation="1.5"/>
      <feOffset dx="0.5" dy="1.5" result="offsetblur"/>
      <feFlood flood-color="#000000" flood-opacity="0.3"/>
      <feComposite in2="offsetblur" operator="in"/>
      <feMerge>
        <feMergeNode/>
        <feMergeNode in="SourceGraphic"/>
      </feMerge>
    </filter>
  </defs>
  
  <!-- Panel 1 -->
  <rect x="10" y="10" width="380" height="300" fill="#fff" stroke="#333" stroke-width="3"/>
  
  <!-- Cache at computer -->
  <g filter="url(#shadow_auto83)">
    <!-- Computer monitor -->
    <rect x="170" y="170" width="60" height="40" fill="#2a2a2a" stroke="#1a1a1a" stroke-width="1.5"/>
    <rect x="173" y="173" width="54" height="34" fill="#4a86c7"/>
    <rect x="190" y="210" width="20" height="8" fill="#4a4a4a"/>
    <rect x="160" y="218" width="80" height="3" fill="#6a6a6a"/>
    
    <!-- Cache -->
    <ellipse cx="200" cy="150" rx="18" ry="20" fill="url(#sq_fur_auto83)" stroke="#5d4a2f" stroke-width="1.3"/>
    <ellipse cx="200" cy="128" rx="14" ry="13" fill="url(#sq_fur_auto83)" stroke="#5d4a2f" stroke-width="1.3"/>
    
    <!-- Tall triangle ears -->
    <ellipse cx="193" cy="122" rx="6" ry="11" fill="url(#sq_fur_auto83)" stroke="#5d4a2f" stroke-width="1.2" transform="rotate(-15 193 122)"/>
    <ellipse cx="207" cy="122" rx="6" ry="11" fill="url(#sq_fur_auto83)" stroke="#5d4a2f" stroke-width="1.2" transform="rotate(15 207 122)"/>
    <ellipse cx="193" cy="125" rx="3" ry="6.5" fill="#cd853f" transform="rotate(-15 193 125)"/>
    <ellipse cx="207" cy="125" rx="3" ry="6.5" fill="#cd853f" transform="rotate(15 207 125)"/>
    
    <!-- Eyes looking at screen -->
    <ellipse cx="194" cy="130" rx="3" ry="4" fill="#fff" stroke="#2a2a2a" stroke-width="0.8"/>
    <circle cx="195" cy="131" r="2" fill="#1a1a1a"/>
    <ellipse cx="206" cy="130" rx="3" ry="4" fill="#fff" stroke="#2a2a2a" stroke-width="0.8"/>
    <circle cx="207" cy="131" r="2" fill="#1a1a1a"/>
    
    <ellipse cx="200" cy="135" rx="1.5" ry="1.2" fill="#1a1a1a"/>
    <path d="M 196 138 Q 200 139 204 138" fill="none" stroke="#8b6842" stroke-width="1" stroke-linecap="round"/>
    
    <!-- Fluffy tail -->
    <path d="M 180 155 Q 165 160 160 175 Q 155 190 165 200 Q 175 210 185 200 Q 180 185 180 170 Q 180 162 180 155" fill="url(#sq_fur_auto83)" stroke="#5d4a2f" stroke-width="1.3"/>
    
    <!-- Text on screen -->
    <text x="200" y="190" font-family="DejaVu Sans" font-size="9.6" text-anchor="middle" fill="#fff">AUTOMATE</text>
    <text x="200" y="200" font-family="DejaVu Sans" font-size="9.6" text-anchor="middle" fill="#fff">EVERYTHING</text>
  </g>
  
  <!-- Speech bubble -->
  <rect x="40" y="40" width="320" height="66" rx="12" fill="#fff" stroke="#333" stroke-width="2"/>
  <polygon points="190,104 200,124 210,104" fill="#fff"/>
  <path d="M 190 106 L 200 126 L 210 106" fill="none" stroke="#333" stroke-width="2"/>
  
  <text x="200" y="68" font-family="DejaVu Sans" font-size="26.4" text-anchor="middle" fill="#222">I automated my job</text>
  <text x="200" y="94" font-family="DejaVu Sans" font-size="26.4" text-anchor="middle" fill="#222">six months ago.</text>
  
  <!-- Panel 2 -->
  <rect x="10" y="330" width="380" height="300" fill="#fff" stroke="#333" stroke-width="3"/>
  
  <!-- Sifaka observing -->
  <g filter="url(#shadow_auto83)">
    <ellipse cx="200" cy="520" rx="22" ry="28" fill="url(#lem_fur_auto83)" stroke="#5a5a5a" stroke-width="1.3"/>
    <ellipse cx="200" cy="490" rx="18" ry="16" fill="url(#lem_fur_auto83)" stroke="#5a5a5a" stroke-width="1.3"/>
    
    <!-- Moderately-sized ears -->
    <ellipse cx="175" cy="485" rx="14" ry="16" fill="url(#lem_fur_auto83)" stroke="#5a5a5a" stroke-width="1.2"/>
    <ellipse cx="225" cy="485" rx="14" ry="16" fill="url(#lem_fur_auto83)" stroke="#5a5a5a" stroke-width="1.2"/>
    <ellipse cx="175" cy="485" rx="8" ry="10" fill="#f5b5c5"/>
    <ellipse cx="225" cy="485" rx="8" ry="10" fill="#f5b5c5"/>
    
    <!-- ENORMOUS eyes -->
    <ellipse cx="188" cy="490" rx="10" ry="11" fill="#fff" stroke="#2a2a2a" stroke-width="1"/>
    <circle cx="188" cy="490" r="8" fill="#1a1a1a"/>
    <circle cx="186" cy="488" r="2" fill="#fff"/>
    
    <ellipse cx="212" cy="490" rx="10" ry="11" fill="#fff" stroke="#2a2a2a" stroke-width="1"/>
    <circle cx="212" cy="490" r="8" fill="#1a1a1a"/>
    <circle cx="210" cy="488" r="2" fill="#fff"/>
    
    <ellipse cx="200" cy="498" rx="2" ry="1.5" fill="#1a1a1a"/>
    <path d="M 193 502 Q 200 503 207 502" fill="none" stroke="#8a8a8a" stroke-width="1" stroke-linecap="round"/>
    
    <!-- Ring tail with stripes -->
    <path d="M 180 525 Q 170 535 165 555 Q 160 575 165 590 Q 170 605 180 610 Q 190 612 200 605 Q 195 585 195 565 Q 195 545 190 530" fill="url(#lem_fur_auto83)" stroke="#5a5a5a" stroke-width="1.3"/>
    <rect x="165" y="555" width="30" height="8" fill="#1a1a1a"/>
    <rect x="165" y="571" width="30" height="8" fill="#f5f5f5"/>
    <rect x="165" y="587" width="30" height="8" fill="#1a1a1a"/>
    <rect x="165" y="603" width="30" height="8" fill="#f5f5f5"/>
  </g>
  
  <!-- Speech bubble -->
  <rect x="90" y="370" width="220" height="66" rx="12" fill="#fff" stroke="#333" stroke-width="2"/>
  <polygon points="190,434 200,454 210,434" fill="#fff"/>
  <path d="M 190 436 L 200 456 L 210 436" fill="none" stroke="#333" stroke-width="2"/>
  
  <text x="200" y="398" font-family="DejaVu Sans" font-size="26.4" text-anchor="middle" fill="#222">What do you</text>
  <text x="200" y="424" font-family="DejaVu Sans" font-size="26.4" text-anchor="middle" fill="#222">do now?</text>
  
  <!-- Panel 3 -->
  <rect x="10" y="650" width="380" height="300" fill="#fff" stroke="#333" stroke-width="3"/>
  
  <!-- Cache looking contemplative -->
  <g filter="url(#shadow_auto83)">
    <ellipse cx="200" cy="820" rx="18" ry="20" fill="url(#sq_fur_auto83)" stroke="#5d4a2f" stroke-width="1.3"/>
    <ellipse cx="200" cy="798" rx="14" ry="13" fill="url(#sq_fur_auto83)" stroke="#5d4a2f" stroke-width="1.3"/>
    
    <!-- Ears -->
    <ellipse cx="193" cy="792" rx="6" ry="11" fill="url(#sq_fur_auto83)" stroke="#5d4a2f" stroke-width="1.2" transform="rotate(-15 193 792)"/>
    <ellipse cx="207" cy="792" rx="6" ry="11" fill="url(#sq_fur_auto83)" stroke="#5d4a2f" stroke-width="1.2" transform="rotate(15 207 792)"/>
    <ellipse cx="193" cy="795" rx="3" ry="6.5" fill="#cd853f" transform="rotate(-15 193 795)"/>
    <ellipse cx="207" cy="795" rx="3" ry="6.5" fill="#cd853f" transform="rotate(15 207 795)"/>
    
    <!-- Contemplative eyes looking up -->
    <ellipse cx="194" cy="800" rx="3" ry="4" fill="#fff" stroke="#2a2a2a" stroke-width="0.8"/>
    <circle cx="194" cy="798" r="2" fill="#1a1a1a"/>
    <ellipse cx="206" cy="800" rx="3" ry="4" fill="#fff" stroke="#2a2a2a" stroke-width="0.8"/>
    <circle cx="206" cy="798" r="2" fill="#1a1a1a"/>
    
    <ellipse cx="200" cy="805" rx="1.5" ry="1.2" fill="#1a1a1a"/>
    <path d="M 196 808 Q 200 809 204 808" fill="none" stroke="#8b6842" stroke-width="1" stroke-linecap="round"/>
    
    <!-- Tail -->
    <path d="M 180 825 Q 165 830 160 845 Q 155 860 165 870 Q 175 880 185 870 Q 180 855 180 840 Q 180 832 180 825" fill="url(#sq_fur_auto83)" stroke="#5d4a2f" stroke-width="1.3"/>
  </g>
  
  <!-- Speech bubble -->
  <rect x="30" y="680" width="340" height="93" rx="12" fill="#fff" stroke="#333" stroke-width="2"/>
  <polygon points="190,771 200,791 210,771" fill="#fff"/>
  <path d="M 190 773 L 200 793 L 210 773" fill="none" stroke="#333" stroke-width="2"/>
  
  <text x="200" y="710" font-family="DejaVu Sans" font-size="26.4" text-anchor="middle" fill="#222">I spend all day pretending</text>
  <text x="200" y="738" font-family="DejaVu Sans" font-size="26.4" text-anchor="middle" fill="#222">to be busy so they don't</text>
  <text x="200" y="766" font-family="DejaVu Sans" font-size="26.4" text-anchor="middle" fill="#222">automate me too.</text>
</svg>