<svg xmlns="http://www.w3.org/2000/svg" viewBox="0 0 900 350">
  <defs>
    <radialGradient id="sq_fur_stream47" cx="40%" cy="40%">
      <stop offset="0%" style="stop-color:#d9a066"/>
      <stop offset="100%" style="stop-color:#9d6b3a"/>
    </radialGradient>
    <radialGradient id="lem_fur_stream47" cx="40%" cy="40%">
      <stop offset="0%" style="stop-color:#e8e8e8"/>
      <stop offset="100%" style="stop-color:#b8b8b8"/>
    </radialGradient>
    <filter id="shadow_stream47">
      <feGaussianBlur in="SourceAlpha" stdDeviation="1.5"/>
      <feOffset dx="0.5" dy="1.5" result="offsetblur"/>
      <feFlood flood-color="#000000" flood-opacity="0.3"/>
      <feComposite in2="offsetblur" operator="in"/>
      <feMerge>
        <feMergeNode/>
        <feMergeNode in="SourceGraphic"/>
      </feMerge>
    </filter>
  </defs>
  
  <!-- Panel 1 -->
  <rect x="5" y="10" width="290" height="330" fill="#fff" stroke="#333" stroke-width="3"/>
  
  <!-- Sifaka with multiple remotes -->
  <g filter="url(#shadow_stream47)">
    <ellipse cx="150" cy="240" rx="22" ry="28" fill="url(#lem_fur_stream47)" stroke="#5a5a5a" stroke-width="1.3"/>
    <ellipse cx="150" cy="210" rx="18" ry="16" fill="url(#lem_fur_stream47)" stroke="#5a5a5a" stroke-width="1.3"/>
    
    <!-- Moderately-sized ears -->
    <ellipse cx="125" cy="205" rx="14" ry="16" fill="url(#lem_fur_stream47)" stroke="#5a5a5a" stroke-width="1.2"/>
    <ellipse cx="175" cy="205" rx="14" ry="16" fill="url(#lem_fur_stream47)" stroke="#5a5a5a" stroke-width="1.2"/>
    <ellipse cx="125" cy="205" rx="8" ry="10" fill="#f5b5c5"/>
    <ellipse cx="175" cy="205" rx="8" ry="10" fill="#f5b5c5"/>
    
    <!-- ENORMOUS eyes looking overwhelmed -->
    <ellipse cx="138" cy="210" rx="10" ry="11" fill="#fff" stroke="#2a2a2a" stroke-width="1"/>
    <circle cx="138" cy="210" r="8" fill="#1a1a1a"/>
    <circle cx="136" cy="208" r="2" fill="#fff"/>
    
    <ellipse cx="162" cy="210" rx="10" ry="11" fill="#fff" stroke="#2a2a2a" stroke-width="1"/>
    <circle cx="162" cy="210" r="8" fill="#1a1a1a"/>
    <circle cx="160" cy="208" r="2" fill="#fff"/>
    
    <ellipse cx="150" cy="218" rx="2" ry="1.5" fill="#1a1a1a"/>
    <path d="M 143 222 Q 150 221 157 222" fill="none" stroke="#8a8a8a" stroke-width="1" stroke-linecap="round"/>
    
    <!-- Multiple remotes in hands -->
    <rect x="120" y="235" width="15" height="25" rx="2" fill="#2a2a2a" stroke="#1a1a1a" stroke-width="1"/>
    <rect x="165" y="235" width="15" height="25" rx="2" fill="#2a2a2a" stroke="#1a1a1a" stroke-width="1"/>
    
    <!-- More remotes scattered on ground -->
    <rect x="100" y="270" width="12" height="20" rx="2" fill="#3a3a3a" stroke="#2a2a2a" stroke-width="1" transform="rotate(15 106 280)"/>
    <rect x="140" y="275" width="12" height="20" rx="2" fill="#3a3a3a" stroke="#2a2a2a" stroke-width="1" transform="rotate(-25 146 285)"/>
    <rect x="180" y="272" width="12" height="20" rx="2" fill="#3a3a3a" stroke="#2a2a2a" stroke-width="1" transform="rotate(30 186 282)"/>
    
    <!-- Ring tail with stripes -->
    <path d="M 130 245 Q 120 255 115 275 Q 110 295 115 310 Q 120 325 130 330 Q 140 332 150 325 Q 145 305 145 285 Q 145 265 140 250" fill="url(#lem_fur_stream47)" stroke="#5a5a5a" stroke-width="1.3"/>
    <rect x="115" y="275" width="30" height="8" fill="#1a1a1a"/>
    <rect x="115" y="291" width="30" height="8" fill="#1a1a1a"/>
    <rect x="115" y="307" width="30" height="8" fill="#1a1a1a"/>
  </g>
  
  <!-- Speech bubble -->
  <rect x="40" y="50" width="220" height="88" rx="12" fill="#fff" stroke="#333" stroke-width="2"/>
  <polygon points="140,136 150,156 160,136" fill="#fff"/>
  <path d="M 140 138 L 150 158 L 160 138" fill="none" stroke="#333" stroke-width="2"/>
  
  <text x="150" y="75" font-family="DejaVu Sans" font-size="14" text-anchor="middle" fill="#222">Netflix, Hulu, Disney+,</text>
  <text x="150" y="93" font-family="DejaVu Sans" font-size="14" text-anchor="middle" fill="#222">HBO Max, Apple TV+,</text>
  <text x="150" y="111" font-family="DejaVu Sans" font-size="14" text-anchor="middle" fill="#222">Paramount+, Peacock...</text>
  <text x="150" y="129" font-family="DejaVu Sans" font-size="14" text-anchor="middle" fill="#222">So many choices!</text>
  
  <!-- Panel 2 -->
  <rect x="305" y="10" width="290" height="330" fill="#fff" stroke="#333" stroke-width="3"/>
  
  <!-- Cache smoking with sunglasses -->
  <g filter="url(#shadow_stream47)">
    <ellipse cx="450" cy="240" rx="18" ry="20" fill="url(#sq_fur_stream47)" stroke="#5d4a2f" stroke-width="1.3"/>
    <ellipse cx="450" cy="218" rx="14" ry="13" fill="url(#sq_fur_stream47)" stroke="#5d4a2f" stroke-width="1.3"/>
    
    <!-- Tall triangle ears -->
    <ellipse cx="443" cy="212" rx="6" ry="11" fill="url(#sq_fur_stream47)" stroke="#5d4a2f" stroke-width="1.2" transform="rotate(-15 443 212)"/>
    <ellipse cx="457" cy="212" rx="6" ry="11" fill="url(#sq_fur_stream47)" stroke="#5d4a2f" stroke-width="1.2" transform="rotate(15 457 212)"/>
    <ellipse cx="443" cy="215" rx="3" ry="6.5" fill="#cd853f" transform="rotate(-15 443 215)"/>
    <ellipse cx="457" cy="215" rx="3" ry="6.5" fill="#cd853f" transform="rotate(15 457 215)"/>
    
    <!-- Sunglasses -->
    <rect x="437" y="214" width="26" height="10" rx="3" fill="#1a1a1a" stroke="#0a0a0a" stroke-width="1"/>
    <rect x="439" y="216" width="10" height="6" rx="2" fill="#333"/>
    <rect x="451" y="216" width="10" height="6" rx="2" fill="#333"/>
    <line x1="449" y1="219" x2="451" y2="219" stroke="#0a0a0a" stroke-width="1"/>
    
    <ellipse cx="450" cy="228" rx="1.5" ry="1.2" fill="#1a1a1a"/>
    
    <!-- Cigarette -->
    <rect x="455" y="227" width="18" height="1.5" fill="#f4f4f4" stroke="#8b7355" stroke-width="0.5"/>
    <rect x="471" y="226.5" width="3" height="2.5" fill="#e85a3c" stroke="#c43a1c" stroke-width="0.5"/>
    
    <!-- Smoke -->
    <path d="M 474 226 Q 477 223 479 219 Q 481 215 484 213" fill="none" stroke="#999" stroke-width="1" opacity="0.5"/>
    <path d="M 474 226 Q 476 222 477 218 Q 478 214 480 211" fill="none" stroke="#999" stroke-width="1" opacity="0.3"/>
    
    <!-- Fluffy tail -->
    <path d="M 430 245 Q 415 250 410 265 Q 405 280 415 290 Q 425 300 435 290 Q 430 275 430 260 Q 430 252 430 245" fill="url(#sq_fur_stream47)" stroke="#5d4a2f" stroke-width="1.3"/>
  </g>
  
  <!-- Speech bubble -->
  <rect x="330" y="50" width="240" height="70" rx="12" fill="#fff" stroke="#333" stroke-width="2"/>
  <polygon points="440,118 450,138 460,118" fill="#fff"/>
  <path d="M 440 120 L 450 140 L 460 120" fill="none" stroke="#333" stroke-width="2"/>
  
  <text x="450" y="75" font-family="DejaVu Sans" font-size="14" text-anchor="middle" fill="#222">Remember when we thought</text>
  <text x="450" y="93" font-family="DejaVu Sans" font-size="14" text-anchor="middle" fill="#222">cable was the problem?</text>
  <text x="450" y="111" font-family="DejaVu Sans" font-size="14" text-anchor="middle" fill="#222">We just invented it again.</text>
  
  <!-- Panel 3 -->
  <rect x="605" y="10" width="290" height="330" fill="#fff" stroke="#333" stroke-width="3"/>
  
  <!-- Both characters watching static on old TV -->
  <g filter="url(#shadow_stream47)">
    <!-- Old TV with antenna -->
    <rect x="700" y="180" width="80" height="60" rx="5" fill="#8b7355" stroke="#5d4a2f" stroke-width="2"/>
    <rect x="710" y="190" width="60" height="40" fill="#2a2a2a"/>
    <!-- Static pattern -->
    <rect x="715" y="195" width="50" height="30" fill="#4a4a4a"/>
    <circle cx="720" cy="200" r="1" fill="#fff" opacity="0.5"/>
    <circle cx="730" cy="205" r="1" fill="#fff" opacity="0.5"/>
    <circle cx="725" cy="210" r="1" fill="#fff" opacity="0.5"/>
    <circle cx="735" cy="215" r="1" fill="#fff" opacity="0.5"/>
    <circle cx="740" cy="198" r="1" fill="#fff" opacity="0.5"/>
    <circle cx="745" cy="208" r="1" fill="#fff" opacity="0.5"/>
    <circle cx="750" cy="203" r="1" fill="#fff" opacity="0.5"/>
    <circle cx="755" cy="213" r="1" fill="#fff" opacity="0.5"/>
    <circle cx="760" cy="218" r="1" fill="#fff" opacity="0.5"/>
    
    <!-- TV antenna -->
    <line x1="730" y1="180" x2="720" y2="160" stroke="#4a4a4a" stroke-width="2"/>
    <line x1="750" y1="180" x2="760" y2="160" stroke="#4a4a4a" stroke-width="2"/>
    
    <!-- Sifaka sitting -->
    <ellipse cx="680" cy="250" rx="20" ry="25" fill="url(#lem_fur_stream47)" stroke="#5a5a5a" stroke-width="1.3"/>
    <ellipse cx="680" cy="225" rx="16" ry="14" fill="url(#lem_fur_stream47)" stroke="#5a5a5a" stroke-width="1.3"/>
    
    <!-- Ears -->
    <ellipse cx="665" cy="220" rx="12" ry="14" fill="url(#lem_fur_stream47)" stroke="#5a5a5a" stroke-width="1.2"/>
    <ellipse cx="695" cy="220" rx="12" ry="14" fill="url(#lem_fur_stream47)" stroke="#5a5a5a" stroke-width="1.2"/>
    <ellipse cx="665" cy="220" rx="7" ry="9" fill="#f5b5c5"/>
    <ellipse cx="695" cy="220" rx="7" ry="9" fill="#f5b5c5"/>
    
    <!-- Peaceful eyes -->
    <ellipse cx="670" cy="225" rx="8" ry="9" fill="#fff" stroke="#2a2a2a" stroke-width="1"/>
    <circle cx="670" cy="225" r="6" fill="#1a1a1a"/>
    <circle cx="668" cy="223" r="2" fill="#fff"/>
    
    <ellipse cx="690" cy="225" rx="8" ry="9" fill="#fff" stroke="#2a2a2a" stroke-width="1"/>
    <circle cx="690" cy="225" r="6" fill="#1a1a1a"/>
    <circle cx="688" cy="223" r="2" fill="#fff"/>
    
    <!-- Cache sitting -->
    <ellipse cx="800" cy="250" rx="16" ry="18" fill="url(#sq_fur_stream47)" stroke="#5d4a2f" stroke-width="1.3"/>
    <ellipse cx="800" cy="232" rx="12" ry="11" fill="url(#sq_fur_stream47)" stroke="#5d4a2f" stroke-width="1.3"/>
    
    <!-- Ears -->
    <ellipse cx="794" cy="227" rx="5" ry="9" fill="url(#sq_fur_stream47)" stroke="#5d4a2f" stroke-width="1.2" transform="rotate(-15 794 227)"/>
    <ellipse cx="806" cy="227" rx="5" ry="9" fill="url(#sq_fur_stream47)" stroke="#5d4a2f" stroke-width="1.2" transform="rotate(15 806 227)"/>
    
    <!-- Content eyes -->
    <ellipse cx="795" cy="234" rx="2.5" ry="3.5" fill="#fff" stroke="#2a2a2a" stroke-width="0.8"/>
    <circle cx="795" cy="235" r="1.5" fill="#1a1a1a"/>
    <ellipse cx="805" cy="234" rx="2.5" ry="3.5" fill="#fff" stroke="#2a2a2a" stroke-width="0.8"/>
    <circle cx="805" cy="235" r="1.5" fill="#1a1a1a"/>
  </g>
  
  <!-- Speech bubble -->
  <rect x="650" y="50" width="200" height="70" rx="12" fill="#fff" stroke="#333" stroke-width="2"/>
  <polygon points="740,118 750,138 760,118" fill="#fff"/>
  <path d="M 740 120 L 750 140 L 760 120" fill="none" stroke="#333" stroke-width="2"/>
  
  <text x="750" y="75" font-family="DejaVu Sans" font-size="14" text-anchor="middle" fill="#222">At least with static,</text>
  <text x="750" y="93" font-family="DejaVu Sans" font-size="14" text-anchor="middle" fill="#222">we knew nothing</text>
  <text x="750" y="111" font-family="DejaVu Sans" font-size="14" text-anchor="middle" fill="#222">was on.</text>
</svg>