<svg xmlns="http://www.w3.org/2000/svg" viewBox="0 0 900 350">
  <defs>
    <radialGradient id="sq_fur_auto73" cx="40%" cy="40%">
      <stop offset="0%" style="stop-color:#d9a066"/>
      <stop offset="100%" style="stop-color:#9d6b3a"/>
    </radialGradient>
    <radialGradient id="lem_fur_auto73" cx="40%" cy="40%">
      <stop offset="0%" style="stop-color:#e8e8e8"/>
      <stop offset="100%" style="stop-color:#b8b8b8"/>
    </radialGradient>
    <radialGradient id="hum_skin_auto73" cx="40%" cy="40%">
      <stop offset="0%" style="stop-color:#f5d3b8"/>
      <stop offset="100%" style="stop-color:#e8b887"/>
    </radialGradient>
    <filter id="shadow_auto73">
      <feGaussianBlur in="SourceAlpha" stdDeviation="1.5"/>
      <feOffset dx="0.5" dy="1.5" result="offsetblur"/>
      <feFlood flood-color="#000000" flood-opacity="0.3"/>
      <feComposite in2="offsetblur" operator="in"/>
      <feMerge>
        <feMergeNode/>
        <feMergeNode in="SourceGraphic"/>
      </feMerge>
    </filter>
  </defs>
  
  <!-- Panel 1 -->
  <rect x="5" y="10" width="217" height="330" fill="#fff" stroke="#333" stroke-width="3"/>
  
  <!-- Cache at computer -->
  <g filter="url(#shadow_auto73)">
    <ellipse cx="111" cy="200" rx="18" ry="20" fill="url(#sq_fur_auto73)" stroke="#5d4a2f" stroke-width="1.3"/>
    <ellipse cx="111" cy="178" rx="14" ry="13" fill="url(#sq_fur_auto73)" stroke="#5d4a2f" stroke-width="1.3"/>
    
    <!-- Tall triangle ears -->
    <ellipse cx="104" cy="172" rx="6" ry="11" fill="url(#sq_fur_auto73)" stroke="#5d4a2f" stroke-width="1.2" transform="rotate(-15 104 172)"/>
    <ellipse cx="118" cy="172" rx="6" ry="11" fill="url(#sq_fur_auto73)" stroke="#5d4a2f" stroke-width="1.2" transform="rotate(15 118 172)"/>
    <ellipse cx="104" cy="175" rx="3" ry="6.5" fill="#cd853f" transform="rotate(-15 104 175)"/>
    <ellipse cx="118" cy="175" rx="3" ry="6.5" fill="#cd853f" transform="rotate(15 118 175)"/>
    
    <!-- Half-lidded eyes -->
    <ellipse cx="105" cy="180" rx="3" ry="2" fill="#fff" stroke="#2a2a2a" stroke-width="0.8"/>
    <circle cx="105" cy="180" r="1.5" fill="#1a1a1a"/>
    <ellipse cx="117" cy="180" rx="3" ry="2" fill="#fff" stroke="#2a2a2a" stroke-width="0.8"/>
    <circle cx="117" cy="180" r="1.5" fill="#1a1a1a"/>
    
    <ellipse cx="111" cy="185" rx="1.5" ry="1.2" fill="#1a1a1a"/>
    <path d="M 107 187 Q 111 188 115 187" fill="none" stroke="#8b6842" stroke-width="1" stroke-linecap="round"/>
    
    <!-- Laptop -->
    <rect x="80" y="210" width="62" height="40" fill="#4a4a4a" stroke="#2a2a2a" stroke-width="1"/>
    <rect x="83" y="213" width="56" height="32" fill="#2a2a2a"/>
    <text x="111" y="228" font-family="DejaVu Sans" font-size="8" text-anchor="middle" fill="#00ff00">AI ASSISTANT</text>
    
    <!-- Fluffy tail -->
    <path d="M 91 205 Q 81 215 76 235 Q 71 255 81 265 Q 91 275 101 265 Q 96 245 96 230 Q 96 215 91 205" fill="url(#sq_fur_auto73)" stroke="#5d4a2f" stroke-width="1.3"/>
  </g>
  
  <!-- Speech bubble -->
  <rect x="25" y="55" width="170" height="85" rx="12" fill="#fff" stroke="#333" stroke-width="2"/>
  <polygon points="101,138 111,158 121,138" fill="#fff"/>
  <path d="M 101 140 L 111 160 L 121 140" fill="none" stroke="#333" stroke-width="2"/>
  
  <text x="110" y="80" font-family="DejaVu Sans" font-size="22" text-anchor="middle" fill="#222">My AI assistant</text>
  <text x="110" y="104" font-family="DejaVu Sans" font-size="22" text-anchor="middle" fill="#222">has automated</text>
  <text x="110" y="128" font-family="DejaVu Sans" font-size="22" text-anchor="middle" fill="#222">everything.</text>
  
  <!-- Panel 2 -->
  <rect x="227" y="10" width="217" height="330" fill="#fff" stroke="#333" stroke-width="3"/>
  
  <!-- Sifaka watching -->
  <g filter="url(#shadow_auto73)">
    <ellipse cx="335" cy="240" rx="22" ry="28" fill="url(#lem_fur_auto73)" stroke="#5a5a5a" stroke-width="1.3"/>
    <ellipse cx="335" cy="210" rx="18" ry="16" fill="url(#lem_fur_auto73)" stroke="#5a5a5a" stroke-width="1.3"/>
    
    <!-- Moderately-sized ears -->
    <ellipse cx="310" cy="205" rx="14" ry="16" fill="url(#lem_fur_auto73)" stroke="#5a5a5a" stroke-width="1.2"/>
    <ellipse cx="360" cy="205" rx="14" ry="16" fill="url(#lem_fur_auto73)" stroke="#5a5a5a" stroke-width="1.2"/>
    <ellipse cx="310" cy="205" rx="8" ry="10" fill="#f5b5c5"/>
    <ellipse cx="360" cy="205" rx="8" ry="10" fill="#f5b5c5"/>
    
    <!-- ENORMOUS eyes -->
    <ellipse cx="323" cy="210" rx="10" ry="11" fill="#fff" stroke="#2a2a2a" stroke-width="1"/>
    <circle cx="323" cy="210" r="8" fill="#1a1a1a"/>
    <circle cx="321" cy="208" r="2" fill="#fff"/>
    
    <ellipse cx="347" cy="210" rx="10" ry="11" fill="#fff" stroke="#2a2a2a" stroke-width="1"/>
    <circle cx="347" cy="210" r="8" fill="#1a1a1a"/>
    <circle cx="345" cy="208" r="2" fill="#fff"/>
    
    <ellipse cx="335" cy="218" rx="2" ry="1.5" fill="#1a1a1a"/>
    <path d="M 328 222 Q 335 223 342 222" fill="none" stroke="#8a8a8a" stroke-width="1" stroke-linecap="round"/>
    
    <!-- Ring tail with stripes -->
    <path d="M 315 245 Q 305 255 300 275 Q 295 295 300 310 Q 305 325 315 330 Q 325 332 335 325 Q 330 305 330 285 Q 330 265 325 250" fill="url(#lem_fur_auto73)" stroke="#5a5a5a" stroke-width="1.3"/>
    <rect x="300" y="275" width="30" height="8" fill="#1a1a1a"/>
    <rect x="300" y="291" width="30" height="8" fill="#1a1a1a"/>
    <rect x="300" y="307" width="30" height="8" fill="#1a1a1a"/>
  </g>
  
  <!-- Speech bubble -->
  <rect x="245" y="75" width="180" height="62" rx="12" fill="#fff" stroke="#333" stroke-width="2"/>
  <polygon points="325,135 335,155 345,135" fill="#fff"/>
  <path d="M 325 137 L 335 157 L 345 137" fill="none" stroke="#333" stroke-width="2"/>
  
  <text x="335" y="100" font-family="DejaVu Sans" font-size="22" text-anchor="middle" fill="#222">Even your</text>
  <text x="335" y="124" font-family="DejaVu Sans" font-size="22" text-anchor="middle" fill="#222">hoarding?</text>
  
  <!-- Panel 3 -->
  <rect x="449" y="10" width="217" height="330" fill="#fff" stroke="#333" stroke-width="3"/>
  
  <!-- Cache looking pleased -->
  <g filter="url(#shadow_auto73)">
    <ellipse cx="557" cy="200" rx="18" ry="20" fill="url(#sq_fur_auto73)" stroke="#5d4a2f" stroke-width="1.3"/>
    <ellipse cx="557" cy="178" rx="14" ry="13" fill="url(#sq_fur_auto73)" stroke="#5d4a2f" stroke-width="1.3"/>
    
    <!-- Ears -->
    <ellipse cx="550" cy="172" rx="6" ry="11" fill="url(#sq_fur_auto73)" stroke="#5d4a2f" stroke-width="1.2" transform="rotate(-15 550 172)"/>
    <ellipse cx="564" cy="172" rx="6" ry="11" fill="url(#sq_fur_auto73)" stroke="#5d4a2f" stroke-width="1.2" transform="rotate(15 564 172)"/>
    <ellipse cx="550" cy="175" rx="3" ry="6.5" fill="#cd853f" transform="rotate(-15 550 175)"/>
    <ellipse cx="564" cy="175" rx="3" ry="6.5" fill="#cd853f" transform="rotate(15 564 175)"/>
    
    <!-- Smug eyes -->
    <ellipse cx="551" cy="180" rx="3" ry="2" fill="#fff" stroke="#2a2a2a" stroke-width="0.8"/>
    <circle cx="551" cy="180" r="1.5" fill="#1a1a1a"/>
    <ellipse cx="563" cy="180" rx="3" ry="2" fill="#fff" stroke="#2a2a2a" stroke-width="0.8"/>
    <circle cx="563" cy="180" r="1.5" fill="#1a1a1a"/>
    
    <ellipse cx="557" cy="185" rx="1.5" ry="1.2" fill="#1a1a1a"/>
    <path d="M 553 188 Q 557 189 561 188" fill="none" stroke="#8b6842" stroke-width="1" stroke-linecap="round"/>
    
    <!-- Digital storage icons around Cache -->
    <rect x="520" y="210" width="25" height="20" fill="#4a86c7" stroke="#2a6697" stroke-width="1"/>
    <text x="532" y="223" font-family="DejaVu Sans" font-size="8" text-anchor="middle" fill="#fff">1TB</text>
    
    <rect x="570" y="210" width="25" height="20" fill="#4a86c7" stroke="#2a6697" stroke-width="1"/>
    <text x="582" y="223" font-family="DejaVu Sans" font-size="8" text-anchor="middle" fill="#fff">1TB</text>
    
    <rect x="545" y="235" width="25" height="20" fill="#4a86c7" stroke="#2a6697" stroke-width="1"/>
    <text x="557" y="248" font-family="DejaVu Sans" font-size="8" text-anchor="middle" fill="#fff">1TB</text>
    
    <!-- Tail -->
    <path d="M 537 205 Q 527 215 522 235 Q 517 255 527 265 Q 537 275 547 265 Q 542 245 542 230 Q 542 215 537 205" fill="url(#sq_fur_auto73)" stroke="#5d4a2f" stroke-width="1.3"/>
  </g>
  
  <!-- Speech bubble -->
  <rect x="470" y="55" width="175" height="85" rx="12" fill="#fff" stroke="#333" stroke-width="2"/>
  <polygon points="547,138 557,158 567,138" fill="#fff"/>
  <path d="M 547 140 L 557 160 L 567 140" fill="none" stroke="#333" stroke-width="2"/>
  
  <text x="557" y="80" font-family="DejaVu Sans" font-size="22" text-anchor="middle" fill="#222">Especially the</text>
  <text x="557" y="104" font-family="DejaVu Sans" font-size="22" text-anchor="middle" fill="#222">hoarding. Infinite</text>
  <text x="557" y="128" font-family="DejaVu Sans" font-size="22" text-anchor="middle" fill="#222">cloud storage.</text>
  
  <!-- Panel 4 -->
  <rect x="671" y="10" width="217" height="330" fill="#fff" stroke="#333" stroke-width="3"/>
  
  <!-- Cache with sunglasses and cigarette -->
  <g filter="url(#shadow_auto73)">
    <ellipse cx="779" cy="200" rx="18" ry="20" fill="url(#sq_fur_auto73)" stroke="#5d4a2f" stroke-width="1.3"/>
    <ellipse cx="779" cy="178" rx="14" ry="13" fill="url(#sq_fur_auto73)" stroke="#5d4a2f" stroke-width="1.3"/>
    
    <!-- Ears -->
    <ellipse cx="772" cy="172" rx="6" ry="11" fill="url(#sq_fur_auto73)" stroke="#5d4a2f" stroke-width="1.2" transform="rotate(-15 772 172)"/>
    <ellipse cx="786" cy="172" rx="6" ry="11" fill="url(#sq_fur_auto73)" stroke="#5d4a2f" stroke-width="1.2" transform="rotate(15 786 172)"/>
    <ellipse cx="772" cy="175" rx="3" ry="6.5" fill="#cd853f" transform="rotate(-15 772 175)"/>
    <ellipse cx="786" cy="175" rx="3" ry="6.5" fill="#cd853f" transform="rotate(15 786 175)"/>
    
    <!-- Sunglasses (because smoking) -->
    <rect x="766" y="174" width="26" height="10" rx="3" fill="#1a1a1a" stroke="#0a0a0a" stroke-width="1"/>
    <rect x="768" y="176" width="10" height="6" rx="2" fill="#333"/>
    <rect x="780" y="176" width="10" height="6" rx="2" fill="#333"/>
    <line x1="778" y1="179" x2="780" y2="179" stroke="#0a0a0a" stroke-width="1"/>
    
    <ellipse cx="779" cy="188" rx="1.5" ry="1.2" fill="#1a1a1a"/>
    
    <!-- Cigarette -->
    <rect x="784" y="187" width="18" height="1.5" fill="#f4f4f4" stroke="#8b7355" stroke-width="0.5"/>
    <rect x="800" y="186.5" width="3" height="2.5" fill="#e85a3c" stroke="#c43a1c" stroke-width="0.5"/>
    
    <!-- Smoke -->
    <path d="M 803 186 Q 806 183 808 180 Q 810 177 812 176" fill="none" stroke="#aaa" stroke-width="1" opacity="0.6"/>
    <path d="M 803 186 Q 805 182 806 178 Q 807 174 808 172" fill="none" stroke="#aaa" stroke-width="1" opacity="0.5"/>
    
    <!-- Tail -->
    <path d="M 759 205 Q 749 215 744 235 Q 739 255 749 265 Q 759 275 769 265 Q 764 245 764 230 Q 764 215 759 205" fill="url(#sq_fur_auto73)" stroke="#5d4a2f" stroke-width="1.3"/>
  </g>
  
  <!-- Speech bubble -->
  <rect x="695" y="55" width="170" height="85" rx="12" fill="#fff" stroke="#333" stroke-width="2"/>
  <polygon points="769,138 779,158 789,138" fill="#fff"/>
  <path d="M 769 140 L 779 160 L 789 140" fill="none" stroke="#333" stroke-width="2"/>
  
  <text x="780" y="80" font-family="DejaVu Sans" font-size="22" text-anchor="middle" fill="#222">Now I can lose</text>
  <text x="780" y="104" font-family="DejaVu Sans" font-size="22" text-anchor="middle" fill="#222">everything at</text>
  <text x="780" y="128" font-family="DejaVu Sans" font-size="22" text-anchor="middle" fill="#222">scale.</text>
</svg>