<svg xmlns="http://www.w3.org/2000/svg" viewBox="0 0 900 350">
  <defs>
    <radialGradient id="sq_fur_sys83" cx="40%" cy="40%">
      <stop offset="0%" style="stop-color:#d9a066"/>
      <stop offset="100%" style="stop-color:#9d6b3a"/>
    </radialGradient>
    <radialGradient id="lem_fur_sys83" cx="40%" cy="40%">
      <stop offset="0%" style="stop-color:#e8e8e8"/>
      <stop offset="100%" style="stop-color:#b8b8b8"/>
    </radialGradient>
    <filter id="shadow_sys83">
      <feGaussianBlur in="SourceAlpha" stdDeviation="1.5"/>
      <feOffset dx="0.5" dy="1.5" result="offsetblur"/>
      <feFlood flood-color="#000000" flood-opacity="0.3"/>
      <feComposite in2="offsetblur" operator="in"/>
      <feMerge>
        <feMergeNode/>
        <feMergeNode in="SourceGraphic"/>
      </feMerge>
    </filter>
  </defs>
  
  <!-- Panel 1 -->
  <rect x="5" y="10" width="217" height="330" fill="#fff" stroke="#333" stroke-width="3"/>
  
  <!-- Cache organizing acorns in complex pattern -->
  <g filter="url(#shadow_sys83)">
    <ellipse cx="111" cy="240" rx="18" ry="20" fill="url(#sq_fur_sys83)" stroke="#5d4a2f" stroke-width="1.3"/>
    <ellipse cx="111" cy="218" rx="14" ry="13" fill="url(#sq_fur_sys83)" stroke="#5d4a2f" stroke-width="1.3"/>
    
    <!-- Tall triangle ears -->
    <ellipse cx="104" cy="212" rx="6" ry="11" fill="url(#sq_fur_sys83)" stroke="#5d4a2f" stroke-width="1.2" transform="rotate(-15 104 212)"/>
    <ellipse cx="118" cy="212" rx="6" ry="11" fill="url(#sq_fur_sys83)" stroke="#5d4a2f" stroke-width="1.2" transform="rotate(15 118 212)"/>
    <ellipse cx="104" cy="215" rx="3" ry="6.5" fill="#cd853f" transform="rotate(-15 104 215)"/>
    <ellipse cx="118" cy="215" rx="3" ry="6.5" fill="#cd853f" transform="rotate(15 118 215)"/>
    
    <!-- Focused eyes -->
    <ellipse cx="105" cy="220" rx="3" ry="4" fill="#fff" stroke="#2a2a2a" stroke-width="0.8"/>
    <circle cx="105" cy="221" r="2" fill="#1a1a1a"/>
    <ellipse cx="117" cy="220" rx="3" ry="4" fill="#fff" stroke="#2a2a2a" stroke-width="0.8"/>
    <circle cx="117" cy="221" r="2" fill="#1a1a1a"/>
    
    <ellipse cx="111" cy="225" rx="1.5" ry="1.2" fill="#1a1a1a"/>
    
    <!-- Arms arranging -->
    <ellipse cx="91" cy="235" rx="8" ry="6" fill="url(#sq_fur_sys83)" stroke="#5d4a2f" stroke-width="1" transform="rotate(-45 91 235)"/>
    <ellipse cx="131" cy="235" rx="8" ry="6" fill="url(#sq_fur_sys83)" stroke="#5d4a2f" stroke-width="1" transform="rotate(45 131 235)"/>
    
    <!-- Complex acorn network with arrows -->
    <ellipse cx="70" cy="270" rx="5" ry="6" fill="#8b6f47" stroke="#5d4a2f" stroke-width="1"/>
    <ellipse cx="95" cy="265" rx="5" ry="6" fill="#8b6f47" stroke="#5d4a2f" stroke-width="1"/>
    <ellipse cx="120" cy="268" rx="5" ry="6" fill="#8b6f47" stroke="#5d4a2f" stroke-width="1"/>
    <ellipse cx="145" cy="272" rx="5" ry="6" fill="#8b6f47" stroke="#5d4a2f" stroke-width="1"/>
    <ellipse cx="85" cy="290" rx="5" ry="6" fill="#8b6f47" stroke="#5d4a2f" stroke-width="1"/>
    <ellipse cx="110" cy="285" rx="5" ry="6" fill="#8b6f47" stroke="#5d4a2f" stroke-width="1"/>
    <ellipse cx="135" cy="288" rx="5" ry="6" fill="#8b6f47" stroke="#5d4a2f" stroke-width="1"/>
    
    <!-- Arrows connecting acorns -->
    <path d="M 75 270 L 90 265" stroke="#4a4a4a" stroke-width="0.8" marker-end="url(#arrowhead)"/>
    <path d="M 100 265 L 115 268" stroke="#4a4a4a" stroke-width="0.8" marker-end="url(#arrowhead)"/>
    <path d="M 125 268 L 140 272" stroke="#4a4a4a" stroke-width="0.8" marker-end="url(#arrowhead)"/>
    <path d="M 95 270 L 85 285" stroke="#4a4a4a" stroke-width="0.8" marker-end="url(#arrowhead)"/>
    <path d="M 120 273 L 110 280" stroke="#4a4a4a" stroke-width="0.8" marker-end="url(#arrowhead)"/>
    <path d="M 110 290 L 130 288" stroke="#4a4a4a" stroke-width="0.8" marker-end="url(#arrowhead)"/>
    
    <!-- Fluffy tail -->
    <path d="M 91 245 Q 76 250 71 265 Q 66 280 76 290 Q 86 300 96 290 Q 91 275 91 260 Q 91 252 91 245" fill="url(#sq_fur_sys83)" stroke="#5d4a2f" stroke-width="1.3"/>
  </g>
  
  <!-- Arrow marker definition -->
  <defs>
    <marker id="arrowhead" markerWidth="6" markerHeight="4" refX="6" refY="2" orient="auto">
      <polygon points="0 0, 6 2, 0 4" fill="#4a4a4a"/>
    </marker>
  </defs>
  
  <!-- Speech bubble -->
  <rect x="25" y="50" width="170" height="88" rx="12" fill="#fff" stroke="#333" stroke-width="2"/>
  <polygon points="101,136 111,156 121,136" fill="#fff"/>
  <path d="M 101 138 L 111 158 L 121 138" fill="none" stroke="#333" stroke-width="2"/>
  
  <text x="110" y="75" font-family="DejaVu Sans" font-size="14" text-anchor="middle" fill="#222">Perfect! Each acorn</text>
  <text x="110" y="93" font-family="DejaVu Sans" font-size="14" text-anchor="middle" fill="#222">influences the others</text>
  <text x="110" y="111" font-family="DejaVu Sans" font-size="14" text-anchor="middle" fill="#222">in an optimal feedback</text>
  <text x="110" y="129" font-family="DejaVu Sans" font-size="14" text-anchor="middle" fill="#222">loop.</text>
  
  <!-- Panel 2 -->
  <rect x="227" y="10" width="217" height="330" fill="#fff" stroke="#333" stroke-width="3"/>
  
  <!-- Sifaka watching, confused -->
  <g filter="url(#shadow_sys83)">
    <ellipse cx="335" cy="240" rx="22" ry="28" fill="url(#lem_fur_sys83)" stroke="#5a5a5a" stroke-width="1.3"/>
    <ellipse cx="335" cy="210" rx="18" ry="16" fill="url(#lem_fur_sys83)" stroke="#5a5a5a" stroke-width="1.3"/>
    
    <!-- Moderately-sized ears -->
    <ellipse cx="310" cy="205" rx="14" ry="16" fill="url(#lem_fur_sys83)" stroke="#5a5a5a" stroke-width="1.2"/>
    <ellipse cx="360" cy="205" rx="14" ry="16" fill="url(#lem_fur_sys83)" stroke="#5a5a5a" stroke-width="1.2"/>
    <ellipse cx="310" cy="205" rx="8" ry="10" fill="#f5b5c5"/>
    <ellipse cx="360" cy="205" rx="8" ry="10" fill="#f5b5c5"/>
    
    <!-- ENORMOUS eyes, confused -->
    <ellipse cx="323" cy="210" rx="10" ry="11" fill="#fff" stroke="#2a2a2a" stroke-width="1"/>
    <circle cx="323" cy="210" r="8" fill="#1a1a1a"/>
    <circle cx="321" cy="208" r="2" fill="#fff"/>
    
    <ellipse cx="347" cy="210" rx="10" ry="11" fill="#fff" stroke="#2a2a2a" stroke-width="1"/>
    <circle cx="347" cy="210" r="8" fill="#1a1a1a"/>
    <circle cx="345" cy="208" r="2" fill="#fff"/>
    
    <ellipse cx="335" cy="218" rx="2" ry="1.5" fill="#1a1a1a"/>
    <path d="M 328 222 Q 335 224 342 222" fill="none" stroke="#8a8a8a" stroke-width="1" stroke-linecap="round"/>
    
    <!-- Ring tail with stripes -->
    <path d="M 315 245 Q 305 255 300 275 Q 295 295 305 305 Q 315 315 325 305 Q 320 285 320 265 Q 320 255 315 245" fill="url(#lem_fur_sys83)" stroke="#5a5a5a" stroke-width="1.3"/>
    <rect x="300" y="275" width="25" height="8" fill="#1a1a1a"/>
    <rect x="300" y="291" width="25" height="8" fill="#1a1a1a"/>
  </g>
  
  <!-- Speech bubble -->
  <rect x="250" y="50" width="170" height="70" rx="12" fill="#fff" stroke="#333" stroke-width="2"/>
  <polygon points="325,118 335,138 345,118" fill="#fff"/>
  <path d="M 325 120 L 335 140 L 345 120" fill="none" stroke="#333" stroke-width="2"/>
  
  <text x="335" y="75" font-family="DejaVu Sans" font-size="14" text-anchor="middle" fill="#222">But you're just</text>
  <text x="335" y="93" font-family="DejaVu Sans" font-size="14" text-anchor="middle" fill="#222">moving them in</text>
  <text x="335" y="111" font-family="DejaVu Sans" font-size="14" text-anchor="middle" fill="#222">circles?</text>
  
  <!-- Panel 3 -->
  <rect x="449" y="10" width="217" height="330" fill="#fff" stroke="#333" stroke-width="3"/>
  
  <!-- Single acorn falling -->
  <ellipse cx="557" cy="260" rx="5" ry="6" fill="#8b6f47" stroke="#5d4a2f" stroke-width="1"/>
  <path d="M 557 250 L 557 254" stroke="#4a4a4a" stroke-width="0.8" stroke-dasharray="2,2"/>
  
  <!-- Cache looking satisfied -->
  <g filter="url(#shadow_sys83)">
    <ellipse cx="557" cy="200" rx="18" ry="20" fill="url(#sq_fur_sys83)" stroke="#5d4a2f" stroke-width="1.3"/>
    <ellipse cx="557" cy="178" rx="14" ry="13" fill="url(#sq_fur_sys83)" stroke="#5d4a2f" stroke-width="1.3"/>
    
    <!-- Tall triangle ears -->
    <ellipse cx="550" cy="172" rx="6" ry="11" fill="url(#sq_fur_sys83)" stroke="#5d4a2f" stroke-width="1.2" transform="rotate(-15 550 172)"/>
    <ellipse cx="564" cy="172" rx="6" ry="11" fill="url(#sq_fur_sys83)" stroke="#5d4a2f" stroke-width="1.2" transform="rotate(15 564 172)"/>
    <ellipse cx="550" cy="175" rx="3" ry="6.5" fill="#cd853f" transform="rotate(-15 550 175)"/>
    <ellipse cx="564" cy="175" rx="3" ry="6.5" fill="#cd853f" transform="rotate(15 564 175)"/>
    
    <!-- Content eyes -->
    <ellipse cx="551" cy="180" rx="3" ry="3" fill="#fff" stroke="#2a2a2a" stroke-width="0.8"/>
    <circle cx="551" cy="180" r="1.5" fill="#1a1a1a"/>
    <ellipse cx="563" cy="180" rx="3" ry="3" fill="#fff" stroke="#2a2a2a" stroke-width="0.8"/>
    <circle cx="563" cy="180" r="1.5" fill="#1a1a1a"/>
    
    <ellipse cx="557" cy="185" rx="1.5" ry="1.2" fill="#1a1a1a"/>
    <path d="M 551 188 Q 557 189 563 188" fill="none" stroke="#8a6d51" stroke-width="1" stroke-linecap="round"/>
    
    <!-- Fluffy tail -->
    <path d="M 537 205 Q 522 210 517 225 Q 512 240 522 250 Q 532 260 542 250 Q 537 235 537 220 Q 537 212 537 205" fill="url(#sq_fur_sys83)" stroke="#5d4a2f" stroke-width="1.3"/>
  </g>
  
  <!-- Speech bubble -->
  <rect x="472" y="50" width="170" height="70" rx="12" fill="#fff" stroke="#333" stroke-width="2"/>
  <polygon points="547,118 557,138 567,118" fill="#fff"/>
  <path d="M 547 120 L 557 140 L 567 120" fill="none" stroke="#333" stroke-width="2"/>
  
  <text x="557" y="75" font-family="DejaVu Sans" font-size="14" text-anchor="middle" fill="#222">Yes. That's why</text>
  <text x="557" y="93" font-family="DejaVu Sans" font-size="14" text-anchor="middle" fill="#222">I've been</text>
  <text x="557" y="111" font-family="DejaVu Sans" font-size="14" text-anchor="middle" fill="#222">promoted to CEO.</text>
</svg>