<svg xmlns="http://www.w3.org/2000/svg" viewBox="0 0 900 350">
  <defs>
    <radialGradient id="sq_fur_hustle94" cx="40%" cy="40%">
      <stop offset="0%" style="stop-color:#d9a066"/>
      <stop offset="100%" style="stop-color:#9d6b3a"/>
    </radialGradient>
    <radialGradient id="lem_fur_hustle94" cx="40%" cy="40%">
      <stop offset="0%" style="stop-color:#e8e8e8"/>
      <stop offset="100%" style="stop-color:#b8b8b8"/>
    </radialGradient>
    <filter id="shadow_hustle94">
      <feGaussianBlur in="SourceAlpha" stdDeviation="1.5"/>
      <feOffset dx="0.5" dy="1.5" result="offsetblur"/>
      <feFlood flood-color="#000000" flood-opacity="0.3"/>
      <feComposite in2="offsetblur" operator="in"/>
      <feMerge>
        <feMergeNode/>
        <feMergeNode in="SourceGraphic"/>
      </feMerge>
    </filter>
  </defs>
  
  <!-- Panel 1 -->
  <rect x="5" y="10" width="217" height="330" fill="#fff" stroke="#333" stroke-width="3"/>
  
  <!-- Cache with multiple acorns and laptop -->
  <g filter="url(#shadow_hustle94)">
    <ellipse cx="111" cy="240" rx="18" ry="20" fill="url(#sq_fur_hustle94)" stroke="#5d4a2f" stroke-width="1.3"/>
    <ellipse cx="111" cy="218" rx="14" ry="13" fill="url(#sq_fur_hustle94)" stroke="#5d4a2f" stroke-width="1.3"/>
    
    <!-- Tall triangle ears -->
    <ellipse cx="104" cy="212" rx="6" ry="11" fill="url(#sq_fur_hustle94)" stroke="#5d4a2f" stroke-width="1.2" transform="rotate(-15 104 212)"/>
    <ellipse cx="118" cy="212" rx="6" ry="11" fill="url(#sq_fur_hustle94)" stroke="#5d4a2f" stroke-width="1.2" transform="rotate(15 118 212)"/>
    <ellipse cx="104" cy="215" rx="3" ry="6.5" fill="#cd853f" transform="rotate(-15 104 215)"/>
    <ellipse cx="118" cy="215" rx="3" ry="6.5" fill="#cd853f" transform="rotate(15 118 215)"/>
    
    <!-- Tired eyes with bags -->
    <ellipse cx="105" cy="220" rx="3" ry="2" fill="#fff" stroke="#2a2a2a" stroke-width="0.8"/>
    <circle cx="105" cy="220" r="1.5" fill="#1a1a1a"/>
    <ellipse cx="117" cy="220" rx="3" ry="2" fill="#fff" stroke="#2a2a2a" stroke-width="0.8"/>
    <circle cx="117" cy="220" r="1.5" fill="#1a1a1a"/>
    <path d="M 102 223 Q 105 225 108 223" fill="none" stroke="#8a6d51" stroke-width="0.8"/>
    <path d="M 114 223 Q 117 225 120 223" fill="none" stroke="#8a6d51" stroke-width="0.8"/>
    
    <ellipse cx="111" cy="225" rx="1.5" ry="1.2" fill="#1a1a1a"/>
    
    <!-- Laptop -->
    <rect x="86" y="250" width="50" height="30" fill="#4a4a4a" stroke="#2a2a2a" stroke-width="1"/>
    <rect x="89" y="252" width="44" height="24" fill="#6a8caf"/>
    <rect x="81" y="280" width="60" height="3" fill="#5a5a5a" stroke="#2a2a2a" stroke-width="1"/>
    
    <!-- Multiple acorns scattered -->
    <ellipse cx="65" cy="270" rx="5" ry="6" fill="#8b6f47" stroke="#5d4a2f" stroke-width="1"/>
    <ellipse cx="75" cy="265" rx="5" ry="6" fill="#8b6f47" stroke="#5d4a2f" stroke-width="1"/>
    <ellipse cx="145" cy="268" rx="5" ry="6" fill="#8b6f47" stroke="#5d4a2f" stroke-width="1"/>
    <ellipse cx="155" cy="272" rx="5" ry="6" fill="#8b6f47" stroke="#5d4a2f" stroke-width="1"/>
    
    <!-- Coffee cup -->
    <ellipse cx="150" cy="255" rx="4" ry="2" fill="#6a4a2f" stroke="#4a3a2f" stroke-width="1"/>
    <rect x="146" y="250" width="8" height="7" fill="#6a4a2f" stroke="#4a3a2f" stroke-width="1"/>
    
    <!-- Fluffy tail -->
    <path d="M 91 245 Q 76 250 71 265 Q 66 280 76 290 Q 86 300 96 290 Q 91 275 91 260 Q 91 252 91 245" fill="url(#sq_fur_hustle94)" stroke="#5d4a2f" stroke-width="1.3"/>
  </g>
  
  <!-- Speech bubble -->
  <rect x="25" y="50" width="170" height="88" rx="12" fill="#fff" stroke="#333" stroke-width="2"/>
  <polygon points="101,136 111,156 121,136" fill="#fff"/>
  <path d="M 101 138 L 111 158 L 121 138" fill="none" stroke="#333" stroke-width="2"/>
  
  <text x="110" y="75" font-family="DejaVu Sans" font-size="14" text-anchor="middle" fill="#222">Grinding 24/7.</text>
  <text x="110" y="93" font-family="DejaVu Sans" font-size="14" text-anchor="middle" fill="#222">Sleep is for the weak.</text>
  <text x="110" y="111" font-family="DejaVu Sans" font-size="14" text-anchor="middle" fill="#222">I'll rest when</text>
  <text x="110" y="129" font-family="DejaVu Sans" font-size="14" text-anchor="middle" fill="#222">I'm dead.</text>
  
  <!-- Panel 2 -->
  <rect x="227" y="10" width="217" height="330" fill="#fff" stroke="#333" stroke-width="3"/>
  
  <!-- Sifaka watching Cache -->
  <g filter="url(#shadow_hustle94)">
    <ellipse cx="335" cy="240" rx="22" ry="28" fill="url(#lem_fur_hustle94)" stroke="#5a5a5a" stroke-width="1.3"/>
    <ellipse cx="335" cy="210" rx="18" ry="16" fill="url(#lem_fur_hustle94)" stroke="#5a5a5a" stroke-width="1.3"/>
    
    <!-- Moderately-sized ears -->
    <ellipse cx="310" cy="205" rx="14" ry="16" fill="url(#lem_fur_hustle94)" stroke="#5a5a5a" stroke-width="1.2"/>
    <ellipse cx="360" cy="205" rx="14" ry="16" fill="url(#lem_fur_hustle94)" stroke="#5a5a5a" stroke-width="1.2"/>
    <ellipse cx="310" cy="205" rx="8" ry="10" fill="#f5b5c5"/>
    <ellipse cx="360" cy="205" rx="8" ry="10" fill="#f5b5c5"/>
    
    <!-- ENORMOUS eyes looking concerned -->
    <ellipse cx="323" cy="210" rx="10" ry="11" fill="#fff" stroke="#2a2a2a" stroke-width="1"/>
    <circle cx="325" cy="210" r="8" fill="#1a1a1a"/>
    <circle cx="323" cy="208" r="2" fill="#fff"/>
    
    <ellipse cx="347" cy="210" rx="10" ry="11" fill="#fff" stroke="#2a2a2a" stroke-width="1"/>
    <circle cx="349" cy="210" r="8" fill="#1a1a1a"/>
    <circle cx="347" cy="208" r="2" fill="#fff"/>
    
    <ellipse cx="335" cy="218" rx="2" ry="1.5" fill="#1a1a1a"/>
    <path d="M 328 222 Q 335 221 342 222" fill="none" stroke="#8a8a8a" stroke-width="1" stroke-linecap="round"/>
    
    <!-- Ring tail with stripes -->
    <path d="M 315 245 Q 305 255 300 275 Q 295 295 300 310 Q 305 325 315 330 Q 325 332 335 325 Q 330 305 330 285 Q 330 265 325 250" fill="url(#lem_fur_hustle94)" stroke="#5a5a5a" stroke-width="1.3"/>
    <rect x="300" y="275" width="30" height="8" fill="#1a1a1a"/>
    <rect x="300" y="291" width="30" height="8" fill="#1a1a1a"/>
    <rect x="300" y="307" width="30" height="8" fill="#1a1a1a"/>
  </g>
  
  <!-- Speech bubble -->
  <rect x="250" y="50" width="170" height="70" rx="12" fill="#fff" stroke="#333" stroke-width="2"/>
  <polygon points="325,118 335,138 345,118" fill="#fff"/>
  <path d="M 325 120 L 335 140 L 345 120" fill="none" stroke="#333" stroke-width="2"/>
  
  <text x="335" y="75" font-family="DejaVu Sans" font-size="14" text-anchor="middle" fill="#222">But squirrels hibernate</text>
  <text x="335" y="93" font-family="DejaVu Sans" font-size="14" text-anchor="middle" fill="#222">for half the year to</text>
  <text x="335" y="111" font-family="DejaVu Sans" font-size="14" text-anchor="middle" fill="#222">survive winter.</text>
  
  <!-- Panel 3 -->
  <rect x="449" y="10" width="217" height="330" fill="#fff" stroke="#333" stroke-width="3"/>
  
  <!-- Cache paused, realizing -->
  <g filter="url(#shadow_hustle94)">
    <ellipse cx="557" cy="240" rx="18" ry="20" fill="url(#sq_fur_hustle94)" stroke="#5d4a2f" stroke-width="1.3"/>
    <ellipse cx="557" cy="218" rx="14" ry="13" fill="url(#sq_fur_hustle94)" stroke="#5d4a2f" stroke-width="1.3"/>
    
    <!-- Tall triangle ears -->
    <ellipse cx="550" cy="212" rx="6" ry="11" fill="url(#sq_fur_hustle94)" stroke="#5d4a2f" stroke-width="1.2" transform="rotate(-15 550 212)"/>
    <ellipse cx="564" cy="212" rx="6" ry="11" fill="url(#sq_fur_hustle94)" stroke="#5d4a2f" stroke-width="1.2" transform="rotate(15 564 212)"/>
    <ellipse cx="550" cy="215" rx="3" ry="6.5" fill="#cd853f" transform="rotate(-15 550 215)"/>
    <ellipse cx="564" cy="215" rx="3" ry="6.5" fill="#cd853f" transform="rotate(15 564 215)"/>
    
    <!-- Wide eyes, realization -->
    <ellipse cx="551" cy="220" rx="4" ry="5" fill="#fff" stroke="#2a2a2a" stroke-width="0.8"/>
    <circle cx="551" cy="220" r="2.5" fill="#1a1a1a"/>
    <ellipse cx="563" cy="220" rx="4" ry="5" fill="#fff" stroke="#2a2a2a" stroke-width="0.8"/>
    <circle cx="563" cy="220" r="2.5" fill="#1a1a1a"/>
    
    <ellipse cx="557" cy="225" rx="1.5" ry="1.2" fill="#1a1a1a"/>
    <path d="M 550 228 Q 557 227 564 228" fill="none" stroke="#8a6d51" stroke-width="1" stroke-linecap="round"/>
    
    <!-- Fluffy tail drooping -->
    <path d="M 537 245 Q 522 260 517 280 Q 512 300 522 310 Q 532 315 542 305 Q 537 285 537 265 Q 537 252 537 245" fill="url(#sq_fur_hustle94)" stroke="#5d4a2f" stroke-width="1.3"/>
  </g>
  
  <!-- Speech bubble -->
  <rect x="470" y="50" width="175" height="88" rx="12" fill="#fff" stroke="#333" stroke-width="2"/>
  <polygon points="547,136 557,156 567,136" fill="#fff"/>
  <path d="M 547 138 L 557 158 L 567 138" fill="none" stroke="#333" stroke-width="2"/>
  
  <text x="557" y="75" font-family="DejaVu Sans" font-size="14" text-anchor="middle" fill="#222">Oh.</text>
  <text x="557" y="93" font-family="DejaVu Sans" font-size="14" text-anchor="middle" fill="#222"></text>
  <text x="557" y="111" font-family="DejaVu Sans" font-size="14" text-anchor="middle" fill="#222">Evolution optimized</text>
  <text x="557" y="129" font-family="DejaVu Sans" font-size="14" text-anchor="middle" fill="#222">for sustainability.</text>
</svg>