<svg xmlns="http://www.w3.org/2000/svg" viewBox="0 0 900 350">
  <defs>
    <radialGradient id="sq_fur_vc9k" cx="40%" cy="40%">
      <stop offset="0%" style="stop-color:#d9a066"/>
      <stop offset="100%" style="stop-color:#9d6b3a"/>
    </radialGradient>
    <radialGradient id="lem_fur_vc9k" cx="40%" cy="40%">
      <stop offset="0%" style="stop-color:#e8e8e8"/>
      <stop offset="100%" style="stop-color:#b8b8b8"/>
    </radialGradient>
    <radialGradient id="hum_skin_vc9k" cx="40%" cy="40%">
      <stop offset="0%" style="stop-color:#f5d3b8"/>
      <stop offset="100%" style="stop-color:#e8b887"/>
    </radialGradient>
  </defs>

  <!-- Background -->
  <rect x="0" y="0" width="900" height="350" fill="#e8e8e0"/>

  <!-- Panel 1 -->
  <rect x="5" y="10" width="290" height="330" fill="#fff" stroke="#333" stroke-width="3"/>

  <!-- Abe sitting cross-legged with laptop, meditating pose but coding -->
  <g>
    <!-- Legs crossed -->
    <ellipse cx="150" cy="285" rx="35" ry="12" fill="#4a6a5a" stroke="#3a5a4a" stroke-width="1.2"/>

    <!-- Body -->
    <ellipse cx="150" cy="240" rx="28" ry="35" fill="#5d8aa8" stroke="#4a6d8c" stroke-width="1.3"/>

    <!-- Head -->
    <ellipse cx="150" cy="190" rx="20" ry="23" fill="url(#hum_skin_vc9k)" stroke="#c8a882" stroke-width="1.3"/>

    <!-- Hair -->
    <path d="M 130 175 Q 150 168 170 175 Q 168 180 164 182 Q 150 178 136 182 Q 132 180 130 175" fill="#4a3728" stroke="#3a2618" stroke-width="1"/>

    <!-- Eyes closed in meditation -->
    <path d="M 138 190 Q 142 192 146 190" fill="none" stroke="#2a2a2a" stroke-width="1.5" stroke-linecap="round"/>
    <path d="M 154 190 Q 158 192 162 190" fill="none" stroke="#2a2a2a" stroke-width="1.5" stroke-linecap="round"/>

    <!-- Serene mouth -->
    <path d="M 145 200 Q 150 202 155 200" fill="none" stroke="#8a6d51" stroke-width="1" stroke-linecap="round"/>

    <!-- Arms in lap position over laptop -->
    <path d="M 122 235 Q 115 250 130 265" fill="none" stroke="url(#hum_skin_vc9k)" stroke-width="8" stroke-linecap="round"/>
    <path d="M 178 235 Q 185 250 170 265" fill="none" stroke="url(#hum_skin_vc9k)" stroke-width="8" stroke-linecap="round"/>

    <!-- Laptop in lap -->
    <rect x="125" y="258" width="50" height="5" fill="#5a5a5a" stroke="#2a2a2a" stroke-width="1"/>
    <rect x="128" y="238" width="44" height="20" fill="#2a2a2a" stroke="#1a1a1a" stroke-width="1"/>
    <rect x="130" y="240" width="40" height="16" fill="#1a2a1a"/>

    <!-- Code on screen - green terminal -->
    <text x="133" y="248" font-family="DejaVu Sans" font-size="5" fill="#44dd44">vibe --deploy</text>
    <text x="133" y="254" font-family="DejaVu Sans" font-size="5" fill="#44dd44">✓ shipping...</text>

    <!-- Meditation lines around head -->
    <path d="M 125 178 Q 120 175 118 170" fill="none" stroke="#c4b49a" stroke-width="0.8" opacity="0.6"/>
    <path d="M 175 178 Q 180 175 182 170" fill="none" stroke="#c4b49a" stroke-width="0.8" opacity="0.6"/>
    <path d="M 150 165 Q 150 160 150 155" fill="none" stroke="#c4b49a" stroke-width="0.8" opacity="0.6"/>
  </g>

  <!-- Speech bubble Panel 1 -->
  <rect x="30" y="30" width="240" height="65" rx="12" fill="#fff" stroke="#333" stroke-width="2"/>
  <polygon points="140,93 150,113 160,93" fill="#fff"/>
  <polygon points="142,95 150,110 158,95" fill="#fff"/>
  <path d="M 140 95 L 150 113 L 160 95" fill="none" stroke="#333" stroke-width="2"/>

  <text x="150" y="57" font-family="DejaVu Sans" font-size="22" text-anchor="middle" fill="#222">I vibe code now.</text>
  <text x="150" y="82" font-family="DejaVu Sans" font-size="22" text-anchor="middle" fill="#222">No thinking. Just flow.</text>

  <!-- Panel 2 -->
  <rect x="305" y="10" width="290" height="330" fill="#fff" stroke="#333" stroke-width="3"/>

  <!-- Cache watching, no cigarette -->
  <g>
    <!-- Body -->
    <ellipse cx="400" cy="230" rx="18" ry="20" fill="url(#sq_fur_vc9k)" stroke="#5d4a2f" stroke-width="1.3"/>

    <!-- Head -->
    <ellipse cx="400" cy="208" rx="14" ry="13" fill="url(#sq_fur_vc9k)" stroke="#5d4a2f" stroke-width="1.3"/>

    <!-- Tall triangle ears -->
    <ellipse cx="393" cy="202" rx="6" ry="11" fill="url(#sq_fur_vc9k)" stroke="#5d4a2f" stroke-width="1.2" transform="rotate(-15 393 202)"/>
    <ellipse cx="407" cy="202" rx="6" ry="11" fill="url(#sq_fur_vc9k)" stroke="#5d4a2f" stroke-width="1.2" transform="rotate(15 407 202)"/>
    <ellipse cx="393" cy="205" rx="3" ry="6.5" fill="#cd853f" transform="rotate(-15 393 205)"/>
    <ellipse cx="407" cy="205" rx="3" ry="6.5" fill="#cd853f" transform="rotate(15 407 205)"/>

    <!-- Ear tufts -->
    <path d="M 391 197 Q 388 191 390 189" fill="none" stroke="#5d4a2f" stroke-width="1.2" stroke-linecap="round"/>
    <path d="M 409 197 Q 412 191 410 189" fill="none" stroke="#5d4a2f" stroke-width="1.2" stroke-linecap="round"/>

    <!-- Half-lidded unimpressed eyes -->
    <ellipse cx="394" cy="210" rx="4" ry="2.5" fill="#fff" stroke="#2a2a2a" stroke-width="0.8"/>
    <circle cx="394" cy="210" r="1.8" fill="#1a1a1a"/>
    <ellipse cx="406" cy="210" rx="4" ry="2.5" fill="#fff" stroke="#2a2a2a" stroke-width="0.8"/>
    <circle cx="406" cy="210" r="1.8" fill="#1a1a1a"/>

    <!-- Whiskers -->
    <line x1="385" y1="213" x2="375" y2="212" stroke="#5d4a2f" stroke-width="0.8"/>
    <line x1="385" y1="216" x2="376" y2="217" stroke="#5d4a2f" stroke-width="0.8"/>
    <line x1="415" y1="213" x2="425" y2="212" stroke="#5d4a2f" stroke-width="0.8"/>
    <line x1="415" y1="216" x2="424" y2="217" stroke="#5d4a2f" stroke-width="0.8"/>

    <!-- Simple mouth -->
    <path d="M 396 217 L 404 217" fill="none" stroke="#5d4a2f" stroke-width="1" stroke-linecap="round"/>

    <!-- Fluffy tail -->
    <path d="M 380 235 Q 365 240 360 255 Q 355 270 365 280 Q 375 288 385 278 Q 380 265 380 250 Q 380 242 380 235" fill="url(#sq_fur_vc9k)" stroke="#5d4a2f" stroke-width="1.3"/>
  </g>

  <!-- Sifaka next to Cache -->
  <g>
    <!-- Body -->
    <ellipse cx="490" cy="230" rx="22" ry="28" fill="url(#lem_fur_vc9k)" stroke="#5a5a5a" stroke-width="1.3"/>

    <!-- Head -->
    <ellipse cx="490" cy="200" rx="18" ry="16" fill="url(#lem_fur_vc9k)" stroke="#5a5a5a" stroke-width="1.3"/>

    <!-- Moderately-sized ears -->
    <ellipse cx="465" cy="195" rx="14" ry="16" fill="url(#lem_fur_vc9k)" stroke="#5a5a5a" stroke-width="1.2"/>
    <ellipse cx="515" cy="195" rx="14" ry="16" fill="url(#lem_fur_vc9k)" stroke="#5a5a5a" stroke-width="1.2"/>
    <ellipse cx="465" cy="195" rx="8" ry="10" fill="#f5b5c5"/>
    <ellipse cx="515" cy="195" rx="8" ry="10" fill="#f5b5c5"/>

    <!-- ENORMOUS eyes -->
    <ellipse cx="478" cy="200" rx="10" ry="11" fill="#fff" stroke="#2a2a2a" stroke-width="1"/>
    <circle cx="478" cy="200" r="8" fill="#1a1a1a"/>
    <circle cx="476" cy="198" r="2" fill="#fff"/>

    <ellipse cx="502" cy="200" rx="10" ry="11" fill="#fff" stroke="#2a2a2a" stroke-width="1"/>
    <circle cx="502" cy="200" r="8" fill="#1a1a1a"/>
    <circle cx="500" cy="198" r="2" fill="#fff"/>

    <!-- Nose and mouth -->
    <ellipse cx="490" cy="208" rx="2" ry="1.5" fill="#1a1a1a"/>
    <path d="M 483 212 Q 490 213 497 212" fill="none" stroke="#8a8a8a" stroke-width="1" stroke-linecap="round"/>

    <!-- Ring tail with stripes -->
    <path d="M 470 235 Q 460 245 455 265 Q 450 285 455 300 Q 460 312 470 315 Q 480 317 490 310 Q 485 290 485 270 Q 485 250 480 238" fill="url(#lem_fur_vc9k)" stroke="#5a5a5a" stroke-width="1.3"/>
    <rect x="455" y="265" width="30" height="7" fill="#1a1a1a"/>
    <rect x="455" y="279" width="30" height="7" fill="#1a1a1a"/>
    <rect x="455" y="293" width="30" height="7" fill="#1a1a1a"/>
  </g>

  <!-- Speech bubble Panel 2 - Cache -->
  <rect x="320" y="30" width="260" height="65" rx="12" fill="#fff" stroke="#333" stroke-width="2"/>
  <polygon points="390,93 400,113 410,93" fill="#fff"/>
  <polygon points="392,95 400,110 408,95" fill="#fff"/>
  <path d="M 390 95 L 400 113 L 410 95" fill="none" stroke="#333" stroke-width="2"/>

  <text x="450" y="57" font-family="DejaVu Sans" font-size="22" text-anchor="middle" fill="#222">So... meditation but</text>
  <text x="450" y="82" font-family="DejaVu Sans" font-size="22" text-anchor="middle" fill="#222">it ships to prod?</text>

  <!-- Sifaka thought - small -->
  <rect x="440" y="120" width="145" height="52" rx="12" fill="#fff" stroke="#333" stroke-width="2"/>
  <polygon points="485,170 490,185 495,170" fill="#fff"/>
  <polygon points="487,172 490,183 493,172" fill="#fff"/>
  <path d="M 485 172 L 490 185 L 495 172" fill="none" stroke="#333" stroke-width="2"/>

  <text x="512" y="144" font-family="DejaVu Sans" font-size="18" text-anchor="middle" fill="#222">With no tests?</text>
  <text x="512" y="163" font-family="DejaVu Sans" font-size="18" text-anchor="middle" fill="#222">Like... on purpose?</text>

  <!-- Panel 3 -->
  <rect x="605" y="10" width="290" height="330" fill="#fff" stroke="#333" stroke-width="3"/>

  <!-- Abe eyes still closed, earbuds visible, laptop still open -->
  <g>
    <!-- Legs crossed -->
    <ellipse cx="750" cy="285" rx="35" ry="12" fill="#4a6a5a" stroke="#3a5a4a" stroke-width="1.2"/>

    <!-- Body -->
    <ellipse cx="750" cy="240" rx="28" ry="35" fill="#5d8aa8" stroke="#4a6d8c" stroke-width="1.3"/>

    <!-- Head -->
    <ellipse cx="750" cy="190" rx="20" ry="23" fill="url(#hum_skin_vc9k)" stroke="#c8a882" stroke-width="1.3"/>

    <!-- Hair -->
    <path d="M 730 175 Q 750 168 770 175 Q 768 180 764 182 Q 750 178 736 182 Q 732 180 730 175" fill="#4a3728" stroke="#3a2618" stroke-width="1"/>

    <!-- Eyes closed, deeper serenity -->
    <path d="M 738 190 Q 742 192 746 190" fill="none" stroke="#2a2a2a" stroke-width="1.5" stroke-linecap="round"/>
    <path d="M 754 190 Q 758 192 762 190" fill="none" stroke="#2a2a2a" stroke-width="1.5" stroke-linecap="round"/>

    <!-- Slight smile -->
    <path d="M 744 201 Q 750 204 756 201" fill="none" stroke="#8a6d51" stroke-width="1.2" stroke-linecap="round"/>

    <!-- Earbuds -->
    <circle cx="730" cy="193" r="3" fill="#1a1a1a" stroke="#333" stroke-width="0.8"/>
    <circle cx="770" cy="193" r="3" fill="#1a1a1a" stroke="#333" stroke-width="0.8"/>
    <path d="M 730 196 Q 728 210 735 220" fill="none" stroke="#333" stroke-width="1"/>
    <path d="M 770 196 Q 772 210 765 220" fill="none" stroke="#333" stroke-width="1"/>

    <!-- Arms in lap -->
    <path d="M 722 235 Q 715 250 730 265" fill="none" stroke="url(#hum_skin_vc9k)" stroke-width="8" stroke-linecap="round"/>
    <path d="M 778 235 Q 785 250 770 265" fill="none" stroke="url(#hum_skin_vc9k)" stroke-width="8" stroke-linecap="round"/>

    <!-- Laptop still open -->
    <rect x="725" y="258" width="50" height="5" fill="#5a5a5a" stroke="#2a2a2a" stroke-width="1"/>
    <rect x="728" y="238" width="44" height="20" fill="#2a2a2a" stroke="#1a1a1a" stroke-width="1"/>
    <rect x="730" y="240" width="40" height="16" fill="#1a2a1a"/>
    <text x="733" y="249" font-family="DejaVu Sans" font-size="5" fill="#44dd44">✓ deployed</text>
    <text x="733" y="254" font-family="DejaVu Sans" font-size="5" fill="#44dd44">0 tests passed</text>

    <!-- Music notes floating - Slayer vibes -->
    <text x="720" y="170" font-family="DejaVu Sans" font-size="11" fill="#E63946" opacity="0.7">♪</text>
    <text x="778" y="165" font-family="DejaVu Sans" font-size="13" fill="#E63946" opacity="0.8">♫</text>
    <text x="712" y="155" font-family="DejaVu Sans" font-size="9" fill="#E63946" opacity="0.5">♪</text>
  </g>

  <!-- Speech bubble Panel 3 -->
  <rect x="625" y="25" width="255" height="95" rx="12" fill="#fff" stroke="#333" stroke-width="2"/>
  <polygon points="740,118 750,138 760,118" fill="#fff"/>
  <polygon points="742,120 750,135 758,120" fill="#fff"/>
  <path d="M 740 120 L 750 140 L 760 120" fill="none" stroke="#333" stroke-width="2"/>

  <text x="752" y="50" font-family="DejaVu Sans" font-size="22" text-anchor="middle" fill="#222">Raining Blood on</text>
  <text x="752" y="75" font-family="DejaVu Sans" font-size="22" text-anchor="middle" fill="#222">repeat. Presence isn't</text>
  <text x="752" y="100" font-family="DejaVu Sans" font-size="22" text-anchor="middle" fill="#222">quiet. It's committed.</text>

  <!-- Small label under laptop screen -->
  <text x="750" y="310" font-family="DejaVu Sans" font-size="10" text-anchor="middle" fill="#888" font-style="italic">— 47 production errors later —</text>

</svg>