<svg xmlns="http://www.w3.org/2000/svg" viewBox="0 0 900 350">
  <defs>
    <radialGradient id="sq_fur_mind84" cx="40%" cy="40%">
      <stop offset="0%" style="stop-color:#d9a066"/>
      <stop offset="100%" style="stop-color:#9d6b3a"/>
    </radialGradient>
    <radialGradient id="lem_fur_mind84" cx="40%" cy="40%">
      <stop offset="0%" style="stop-color:#e8e8e8"/>
      <stop offset="100%" style="stop-color:#b8b8b8"/>
    </radialGradient>
    <filter id="shadow_mind84">
      <feGaussianBlur in="SourceAlpha" stdDeviation="1.5"/>
      <feOffset dx="0.5" dy="1.5" result="offsetblur"/>
      <feFlood flood-color="#000000" flood-opacity="0.3"/>
      <feComposite in2="offsetblur" operator="in"/>
      <feMerge>
        <feMergeNode/>
        <feMergeNode in="SourceGraphic"/>
      </feMerge>
    </filter>
  </defs>
  
  <!-- Panel 1 -->
  <rect x="5" y="10" width="217" height="330" fill="#fff" stroke="#333" stroke-width="3"/>
  
  <!-- Cache in meditation pose -->
  <g filter="url(#shadow_mind84)">
    <ellipse cx="111" cy="230" rx="18" ry="20" fill="url(#sq_fur_mind84)" stroke="#5d4a2f" stroke-width="1.3"/>
    <ellipse cx="111" cy="208" rx="14" ry="13" fill="url(#sq_fur_mind84)" stroke="#5d4a2f" stroke-width="1.3"/>
    
    <!-- Tall triangle ears -->
    <ellipse cx="104" cy="202" rx="6" ry="11" fill="url(#sq_fur_mind84)" stroke="#5d4a2f" stroke-width="1.2" transform="rotate(-15 104 202)"/>
    <ellipse cx="118" cy="202" rx="6" ry="11" fill="url(#sq_fur_mind84)" stroke="#5d4a2f" stroke-width="1.2" transform="rotate(15 118 202)"/>
    <ellipse cx="104" cy="205" rx="3" ry="6.5" fill="#cd853f" transform="rotate(-15 104 205)"/>
    <ellipse cx="118" cy="205" rx="3" ry="6.5" fill="#cd853f" transform="rotate(15 118 205)"/>
    
    <!-- Eyes closed -->
    <path d="M 102 210 Q 106 211 110 210" fill="none" stroke="#2a2a2a" stroke-width="0.8"/>
    <path d="M 112 210 Q 116 211 120 210" fill="none" stroke="#2a2a2a" stroke-width="0.8"/>
    
    <ellipse cx="111" cy="215" rx="1.5" ry="1.2" fill="#1a1a1a"/>
    
    <!-- Arms in meditation mudra -->
    <ellipse cx="91" cy="235" rx="8" ry="6" fill="url(#sq_fur_mind84)" stroke="#5d4a2f" stroke-width="1"/>
    <ellipse cx="131" cy="235" rx="8" ry="6" fill="url(#sq_fur_mind84)" stroke="#5d4a2f" stroke-width="1"/>
    <circle cx="111" cy="238" r="3" fill="url(#sq_fur_mind84)" stroke="#5d4a2f" stroke-width="1"/>
    
    <!-- Fluffy tail -->
    <path d="M 91 235 Q 76 240 71 255 Q 66 270 76 280 Q 86 290 96 280 Q 91 265 91 250 Q 91 242 91 235" fill="url(#sq_fur_mind84)" stroke="#5d4a2f" stroke-width="1.3"/>
    
    <!-- Meditation cushion -->
    <ellipse cx="111" cy="255" rx="35" ry="8" fill="#8b6f47" stroke="#6b4f27" stroke-width="1"/>
  </g>
  
  <!-- Speech bubble -->
  <rect x="20" y="50" width="180" height="88" rx="12" fill="#fff" stroke="#333" stroke-width="2"/>
  <polygon points="101,136 111,156 121,136" fill="#fff"/>
  <path d="M 101 138 L 111 158 L 121 138" fill="none" stroke="#333" stroke-width="2"/>
  
  <text x="110" y="75" font-family="DejaVu Sans" font-size="14" text-anchor="middle" fill="#222">I downloaded seventeen</text>
  <text x="110" y="93" font-family="DejaVu Sans" font-size="14" text-anchor="middle" fill="#222">mindfulness apps to</text>
  <text x="110" y="111" font-family="DejaVu Sans" font-size="14" text-anchor="middle" fill="#222">help me stop looking</text>
  <text x="110" y="129" font-family="DejaVu Sans" font-size="14" text-anchor="middle" fill="#222">at my phone.</text>
  
  <!-- Panel 2 -->
  <rect x="227" y="10" width="217" height="330" fill="#fff" stroke="#333" stroke-width="3"/>
  
  <!-- Sifaka watching -->
  <g filter="url(#shadow_mind84)">
    <ellipse cx="335" cy="230" rx="22" ry="28" fill="url(#lem_fur_mind84)" stroke="#5a5a5a" stroke-width="1.3"/>
    <ellipse cx="335" cy="200" rx="18" ry="16" fill="url(#lem_fur_mind84)" stroke="#5a5a5a" stroke-width="1.3"/>
    
    <!-- Moderately-sized ears -->
    <ellipse cx="310" cy="195" rx="14" ry="16" fill="url(#lem_fur_mind84)" stroke="#5a5a5a" stroke-width="1.2"/>
    <ellipse cx="360" cy="195" rx="14" ry="16" fill="url(#lem_fur_mind84)" stroke="#5a5a5a" stroke-width="1.2"/>
    <ellipse cx="310" cy="195" rx="8" ry="10" fill="#f5b5c5"/>
    <ellipse cx="360" cy="195" rx="8" ry="10" fill="#f5b5c5"/>
    
    <!-- ENORMOUS eyes -->
    <ellipse cx="323" cy="200" rx="10" ry="11" fill="#fff" stroke="#2a2a2a" stroke-width="1"/>
    <circle cx="323" cy="200" r="8" fill="#1a1a1a"/>
    <circle cx="321" cy="198" r="2" fill="#fff"/>
    
    <ellipse cx="347" cy="200" rx="10" ry="11" fill="#fff" stroke="#2a2a2a" stroke-width="1"/>
    <circle cx="347" cy="200" r="8" fill="#1a1a1a"/>
    <circle cx="345" cy="198" r="2" fill="#fff"/>
    
    <ellipse cx="335" cy="208" rx="2" ry="1.5" fill="#1a1a1a"/>
    <path d="M 328 212 Q 335 213 342 212" fill="none" stroke="#8a8a8a" stroke-width="1" stroke-linecap="round"/>
    
    <!-- Ring tail with stripes -->
    <path d="M 315 235 Q 305 245 300 265 Q 295 285 300 300 Q 305 315 315 320 Q 325 322 335 315 Q 330 295 330 275 Q 330 255 325 240" fill="url(#lem_fur_mind84)" stroke="#5a5a5a" stroke-width="1.3"/>
    <rect x="300" y="265" width="30" height="8" fill="#1a1a1a"/>
    <rect x="300" y="281" width="30" height="8" fill="#1a1a1a"/>
    <rect x="300" y="297" width="30" height="8" fill="#1a1a1a"/>
  </g>
  
  <!-- Speech bubble -->
  <rect x="245" y="50" width="155" height="70" rx="12" fill="#fff" stroke="#333" stroke-width="2"/>
  <polygon points="325,118 335,138 345,118" fill="#fff"/>
  <path d="M 325 120 L 335 140 L 345 120" fill="none" stroke="#333" stroke-width="2"/>
  
  <text x="322" y="75" font-family="DejaVu Sans" font-size="14" text-anchor="middle" fill="#222">How's that working</text>
  <text x="322" y="93" font-family="DejaVu Sans" font-size="14" text-anchor="middle" fill="#222">out for you?</text>
  
  <!-- Panel 3 -->
  <rect x="449" y="10" width="217" height="330" fill="#fff" stroke="#333" stroke-width="3"/>
  
  <!-- Cache with phone, eyes still closed -->
  <g filter="url(#shadow_mind84)">
    <ellipse cx="558" cy="230" rx="18" ry="20" fill="url(#sq_fur_mind84)" stroke="#5d4a2f" stroke-width="1.3"/>
    <ellipse cx="558" cy="208" rx="14" ry="13" fill="url(#sq_fur_mind84)" stroke="#5d4a2f" stroke-width="1.3"/>
    
    <!-- Tall triangle ears -->
    <ellipse cx="551" cy="202" rx="6" ry="11" fill="url(#sq_fur_mind84)" stroke="#5d4a2f" stroke-width="1.2" transform="rotate(-15 551 202)"/>
    <ellipse cx="565" cy="202" rx="6" ry="11" fill="url(#sq_fur_mind84)" stroke="#5d4a2f" stroke-width="1.2" transform="rotate(15 565 202)"/>
    <ellipse cx="551" cy="205" rx="3" ry="6.5" fill="#cd853f" transform="rotate(-15 551 205)"/>
    <ellipse cx="565" cy="205" rx="3" ry="6.5" fill="#cd853f" transform="rotate(15 565 205)"/>
    
    <!-- Eyes still closed -->
    <path d="M 549 210 Q 553 211 557 210" fill="none" stroke="#2a2a2a" stroke-width="0.8"/>
    <path d="M 559 210 Q 563 211 567 210" fill="none" stroke="#2a2a2a" stroke-width="0.8"/>
    
    <ellipse cx="558" cy="215" rx="1.5" ry="1.2" fill="#1a1a1a"/>
    
    <!-- Phone in hand -->
    <ellipse cx="578" cy="235" rx="8" ry="6" fill="url(#sq_fur_mind84)" stroke="#5d4a2f" stroke-width="1"/>
    <rect x="570" y="228" width="20" height="30" rx="2" fill="#2a2a2a" stroke="#1a1a1a" stroke-width="1"/>
    <rect x="572" y="231" width="16" height="22" fill="#4a7c9e"/>
    
    <!-- Notification badges on phone -->
    <circle cx="575" cy="235" r="2" fill="#ff4444"/>
    <circle cx="580" cy="240" r="2" fill="#ff4444"/>
    <circle cx="585" cy="238" r="2" fill="#ff4444"/>
    <circle cx="582" cy="245" r="2" fill="#ff4444"/>
    <circle cx="577" cy="248" r="2" fill="#ff4444"/>
    
    <!-- Left arm still in meditation pose -->
    <ellipse cx="538" cy="235" rx="8" ry="6" fill="url(#sq_fur_mind84)" stroke="#5d4a2f" stroke-width="1"/>
    
    <!-- Fluffy tail -->
    <path d="M 538 235 Q 523 240 518 255 Q 513 270 523 280 Q 533 290 543 280 Q 538 265 538 250 Q 538 242 538 235" fill="url(#sq_fur_mind84)" stroke="#5d4a2f" stroke-width="1.3"/>
    
    <!-- Meditation cushion -->
    <ellipse cx="558" cy="255" rx="35" ry="8" fill="#8b6f47" stroke="#6b4f27" stroke-width="1"/>
  </g>
  
  <!-- Speech bubble -->
  <rect x="470" y="50" width="175" height="70" rx="12" fill="#fff" stroke="#333" stroke-width="2"/>
  <polygon points="548,118 558,138 568,118" fill="#fff"/>
  <path d="M 548 120 L 558 140 L 568 120" fill="none" stroke="#333" stroke-width="2"/>
  
  <text x="557" y="75" font-family="DejaVu Sans" font-size="14" text-anchor="middle" fill="#222">I'm too present to</text>
  <text x="557" y="93" font-family="DejaVu Sans" font-size="14" text-anchor="middle" fill="#222">notice the notifications.</text>
</svg>