<svg xmlns="http://www.w3.org/2000/svg" viewBox="0 0 900 350">
  <defs>
    <radialGradient id="sq_fur_cloud47" cx="40%" cy="40%">
      <stop offset="0%" style="stop-color:#d9a066"/>
      <stop offset="100%" style="stop-color:#9d6b3a"/>
    </radialGradient>
    <radialGradient id="lem_fur_cloud47" cx="40%" cy="40%">
      <stop offset="0%" style="stop-color:#e8e8e8"/>
      <stop offset="100%" style="stop-color:#b8b8b8"/>
    </radialGradient>
    <filter id="shadow_cloud47">
      <feGaussianBlur in="SourceAlpha" stdDeviation="1.5"/>
      <feOffset dx="0.5" dy="1.5" result="offsetblur"/>
      <feFlood flood-color="#000000" flood-opacity="0.3"/>
      <feComposite in2="offsetblur" operator="in"/>
      <feMerge>
        <feMergeNode/>
        <feMergeNode in="SourceGraphic"/>
      </feMerge>
    </filter>
  </defs>
  
  <!-- Panel 1 -->
  <rect x="5" y="10" width="217" height="330" fill="#fff" stroke="#333" stroke-width="3"/>
  
  <!-- Cache with tiny server rack -->
  <g filter="url(#shadow_cloud47)">
    <ellipse cx="111" cy="200" rx="18" ry="20" fill="url(#sq_fur_cloud47)" stroke="#5d4a2f" stroke-width="1.3"/>
    <ellipse cx="111" cy="178" rx="14" ry="13" fill="url(#sq_fur_cloud47)" stroke="#5d4a2f" stroke-width="1.3"/>
    
    <!-- Tall triangle ears -->
    <ellipse cx="104" cy="172" rx="6" ry="11" fill="url(#sq_fur_cloud47)" stroke="#5d4a2f" stroke-width="1.2" transform="rotate(-15 104 172)"/>
    <ellipse cx="118" cy="172" rx="6" ry="11" fill="url(#sq_fur_cloud47)" stroke="#5d4a2f" stroke-width="1.2" transform="rotate(15 118 172)"/>
    <ellipse cx="104" cy="175" rx="3" ry="6.5" fill="#cd853f" transform="rotate(-15 104 175)"/>
    <ellipse cx="118" cy="175" rx="3" ry="6.5" fill="#cd853f" transform="rotate(15 118 175)"/>
    
    <!-- Proud eyes -->
    <ellipse cx="105" cy="180" rx="3" ry="4" fill="#fff" stroke="#2a2a2a" stroke-width="0.8"/>
    <circle cx="105" cy="180" r="2" fill="#1a1a1a"/>
    <ellipse cx="117" cy="180" rx="3" ry="4" fill="#fff" stroke="#2a2a2a" stroke-width="0.8"/>
    <circle cx="117" cy="180" r="2" fill="#1a1a1a"/>
    
    <ellipse cx="111" cy="185" rx="1.5" ry="1.2" fill="#1a1a1a"/>
    <path d="M 106 189 Q 111 191 116 189" fill="none" stroke="#8a6d51" stroke-width="1" stroke-linecap="round"/>
    
    <!-- Arms holding tiny server -->
    <ellipse cx="91" cy="195" rx="8" ry="6" fill="url(#sq_fur_cloud47)" stroke="#5d4a2f" stroke-width="1" transform="rotate(-20 91 195)"/>
    <ellipse cx="131" cy="195" rx="8" ry="6" fill="url(#sq_fur_cloud47)" stroke="#5d4a2f" stroke-width="1" transform="rotate(20 131 195)"/>
    
    <!-- Tiny server rack -->
    <rect x="101" y="190" width="20" height="30" fill="#3a3a3a" stroke="#1a1a1a" stroke-width="1"/>
    <rect x="104" y="193" width="14" height="4" fill="#5a5a5a"/>
    <rect x="104" y="199" width="14" height="4" fill="#5a5a5a"/>
    <rect x="104" y="205" width="14" height="4" fill="#5a5a5a"/>
    <rect x="104" y="211" width="14" height="4" fill="#5a5a5a"/>
    <!-- Blinking LEDs -->
    <circle cx="106" cy="195" r="1" fill="#00ff00"/>
    <circle cx="106" cy="201" r="1" fill="#ff0000"/>
    <circle cx="106" cy="207" r="1" fill="#00ff00"/>
    <circle cx="106" cy="213" r="1" fill="#ffff00"/>
    
    <!-- Fluffy tail -->
    <path d="M 91 205 Q 76 210 71 225 Q 66 240 76 250 Q 86 260 96 250 Q 91 235 91 220 Q 91 212 91 205" fill="url(#sq_fur_cloud47)" stroke="#5d4a2f" stroke-width="1.3"/>
    
    <!-- Power cable -->
    <path d="M 111 220 L 111 260 L 85 260" stroke="#2a2a2a" stroke-width="2" fill="none"/>
    <rect x="80" y="258" width="5" height="4" fill="#2a2a2a"/>
  </g>
  
  <!-- Speech bubble -->
  <rect x="25" y="50" width="170" height="70" rx="12" fill="#fff" stroke="#333" stroke-width="2"/>
  <polygon points="101,118 111,138 121,118" fill="#fff"/>
  <path d="M 101 120 L 111 140 L 121 120" fill="none" stroke="#333" stroke-width="2"/>
  
  <text x="110" y="75" font-family="DejaVu Sans" font-size="14" text-anchor="middle" fill="#222">Bought my own server.</text>
  <text x="110" y="93" font-family="DejaVu Sans" font-size="14" text-anchor="middle" fill="#222">No more cloud bills.</text>
  <text x="110" y="111" font-family="DejaVu Sans" font-size="14" text-anchor="middle" fill="#222">I own my data now.</text>
  
  <!-- Panel 2 -->
  <rect x="227" y="10" width="217" height="330" fill="#fff" stroke="#333" stroke-width="3"/>
  
  <!-- Sifaka looking at electricity bill -->
  <g filter="url(#shadow_cloud47)">
    <ellipse cx="335" cy="200" rx="22" ry="28" fill="url(#lem_fur_cloud47)" stroke="#5a5a5a" stroke-width="1.3"/>
    <ellipse cx="335" cy="170" rx="18" ry="16" fill="url(#lem_fur_cloud47)" stroke="#5a5a5a" stroke-width="1.3"/>
    
    <!-- Moderately-sized ears -->
    <ellipse cx="310" cy="165" rx="14" ry="16" fill="url(#lem_fur_cloud47)" stroke="#5a5a5a" stroke-width="1.2"/>
    <ellipse cx="360" cy="165" rx="14" ry="16" fill="url(#lem_fur_cloud47)" stroke="#5a5a5a" stroke-width="1.2"/>
    <ellipse cx="310" cy="165" rx="8" ry="10" fill="#f5b5c5"/>
    <ellipse cx="360" cy="165" rx="8" ry="10" fill="#f5b5c5"/>
    
    <!-- ENORMOUS eyes looking at paper -->
    <ellipse cx="323" cy="170" rx="10" ry="11" fill="#fff" stroke="#2a2a2a" stroke-width="1"/>
    <circle cx="323" cy="172" r="8" fill="#1a1a1a"/>
    <circle cx="321" cy="170" r="2" fill="#fff"/>
    
    <ellipse cx="347" cy="170" rx="10" ry="11" fill="#fff" stroke="#2a2a2a" stroke-width="1"/>
    <circle cx="347" cy="172" r="8" fill="#1a1a1a"/>
    <circle cx="345" cy="170" r="2" fill="#fff"/>
    
    <ellipse cx="335" cy="178" rx="2" ry="1.5" fill="#1a1a1a"/>
    <path d="M 328 182 Q 335 181 342 182" fill="none" stroke="#8a8a8a" stroke-width="1" stroke-linecap="round"/>
    
    <!-- Holding electricity bill -->
    <ellipse cx="315" cy="195" rx="8" ry="10" fill="url(#lem_fur_cloud47)" stroke="#5a5a5a" stroke-width="1" transform="rotate(-20 315 195)"/>
    <ellipse cx="355" cy="195" rx="8" ry="10" fill="url(#lem_fur_cloud47)" stroke="#5a5a5a" stroke-width="1" transform="rotate(20 355 195)"/>
    
    <rect x="320" y="185" width="30" height="40" fill="#f5f5f5" stroke="#2a2a2a" stroke-width="1"/>
    <text x="335" y="198" font-family="DejaVu Sans" font-size="8" text-anchor="middle" fill="#222">ELECTRIC</text>
    <text x="335" y="206" font-family="DejaVu Sans" font-size="8" text-anchor="middle" fill="#222">BILL</text>
    <text x="335" y="218" font-family="DejaVu Sans" font-size="10" text-anchor="middle" fill="#ff0000">$847</text>
    
    <!-- Ring tail with stripes -->
    <path d="M 315 205 Q 305 215 300 235 Q 295 255 300 270 Q 305 285 315 290 Q 325 292 335 285 Q 330 265 330 245 Q 330 225 325 210" fill="url(#lem_fur_cloud47)" stroke="#5a5a5a" stroke-width="1.3"/>
    <rect x="300" y="235" width="30" height="8" fill="#1a1a1a"/>
    <rect x="300" y="251" width="30" height="8" fill="#1a1a1a"/>
    <rect x="300" y="267" width="30" height="8" fill="#1a1a1a"/>
  </g>
  
  <!-- Speech bubble -->
  <rect x="250" y="50" width="145" height="52" rx="12" fill="#fff" stroke="#333" stroke-width="2"/>
  <polygon points="325,100 335,120 345,100" fill="#fff"/>
  <path d="M 325 102 L 335 122 L 345 102" fill="none" stroke="#333" stroke-width="2"/>
  
  <text x="322" y="75" font-family="DejaVu Sans" font-size="14" text-anchor="middle" fill="#222">Your electricity bill</text>
  <text x="322" y="93" font-family="DejaVu Sans" font-size="14" text-anchor="middle" fill="#222">came.</text>
  
  <!-- Panel 3 -->
  <rect x="449" y="10" width="217" height="330" fill="#fff" stroke="#333" stroke-width="3"/>
  
  <!-- Cache looking defeated -->
  <g filter="url(#shadow_cloud47)">
    <ellipse cx="557" cy="240" rx="18" ry="20" fill="url(#sq_fur_cloud47)" stroke="#5d4a2f" stroke-width="1.3"/>
    <ellipse cx="557" cy="218" rx="14" ry="13" fill="url(#sq_fur_cloud47)" stroke="#5d4a2f" stroke-width="1.3"/>
    
    <!-- Tall triangle ears drooping -->
    <ellipse cx="550" cy="212" rx="6" ry="11" fill="url(#sq_fur_cloud47)" stroke="#5d4a2f" stroke-width="1.2" transform="rotate(-25 550 212)"/>
    <ellipse cx="564" cy="212" rx="6" ry="11" fill="url(#sq_fur_cloud47)" stroke="#5d4a2f" stroke-width="1.2" transform="rotate(25 564 212)"/>
    <ellipse cx="550" cy="215" rx="3" ry="6.5" fill="#cd853f" transform="rotate(-25 550 215)"/>
    <ellipse cx="564" cy="215" rx="3" ry="6.5" fill="#cd853f" transform="rotate(25 564 215)"/>
    
    <!-- Eyes looking down -->
    <ellipse cx="551" cy="220" rx="3" ry="2" fill="#fff" stroke="#2a2a2a" stroke-width="0.8"/>
    <circle cx="551" cy="221" r="1.5" fill="#1a1a1a"/>
    <ellipse cx="563" cy="220" rx="3" ry="2" fill="#fff" stroke="#2a2a2a" stroke-width="0.8"/>
    <circle cx="563" cy="221" r="1.5" fill="#1a1a1a"/>
    
    <ellipse cx="557" cy="225" rx="1.5" ry="1.2" fill="#1a1a1a"/>
    <path d="M 552 229 Q 557 228 562 229" fill="none" stroke="#8a6d51" stroke-width="1" stroke-linecap="round"/>
    
    <!-- Arms hanging down -->
    <ellipse cx="542" cy="240" rx="8" ry="6" fill="url(#sq_fur_cloud47)" stroke="#5d4a2f" stroke-width="1" transform="rotate(-45 542 240)"/>
    <ellipse cx="572" cy="240" rx="8" ry="6" fill="url(#sq_fur_cloud47)" stroke="#5d4a2f" stroke-width="1" transform="rotate(45 572 240)"/>
    
    <!-- Fluffy tail drooping -->
    <path d="M 537 245 Q 527 255 522 270 Q 520 285 530 290 Q 540 292 545 285 Q 542 270 542 255 Q 540 248 537 245" fill="url(#sq_fur_cloud47)" stroke="#5d4a2f" stroke-width="1.3"/>
    
    <!-- Small server on ground -->
    <rect x="547" y="270" width="20" height="15" fill="#3a3a3a" stroke="#1a1a1a" stroke-width="1"/>
    <circle cx="549" cy="273" r="0.5" fill="#ff0000"/>
  </g>
  
  <!-- Speech bubble -->
  <rect x="465" y="80" width="185" height="88" rx="12" fill="#fff" stroke="#333" stroke-width="2"/>
  <polygon points="547,166 557,186 567,166" fill="#fff"/>
  <path d="M 547 168 L 557 188 L 567 168" fill="none" stroke="#333" stroke-width="2"/>
  
  <text x="557" y="105" font-family="DejaVu Sans" font-size="14" text-anchor="middle" fill="#222">Turns out you don't own</text>
  <text x="557" y="123" font-family="DejaVu Sans" font-size="14" text-anchor="middle" fill="#222">the cloud. You just rent</text>
  <text x="557" y="141" font-family="DejaVu Sans" font-size="14" text-anchor="middle" fill="#222">the electricity company</text>
  <text x="557" y="159" font-family="DejaVu Sans" font-size="14" text-anchor="middle" fill="#222">instead.</text>
  
  <!-- Title -->
  <rect x="5" y="5" width="890" height="5" fill="#E63946"/>
  <rect x="673" y="15" width="217" height="25" fill="#fff" stroke="#333" stroke-width="2" rx="5"/>
  <text x="781" y="32" font-family="DejaVu Sans" font-size="12" font-weight="bold" text-anchor="middle" fill="#222">process.ink</text>
</svg>